<svg xmlns="http://www.w3.org/2000/svg" width="256" height="256"><path fill-opacity=".016" d="M0 128.004v128.004l128.25-.254 128.25-.254.254-127.75L257.008 0H0v128.004m.485.496c0 70.4.119 99.053.265 63.672.146-35.38.146-92.98 0-128C.604 29.153.485 58.1.485 128.5" fill="#1976D2" fill-rule="evenodd"/><path fill-opacity=".095" d="M109 7.441c0 .793.45 1.719 1 2.059 1.602.99 1.239 7.5-.418 7.5-.78 0-2.05.242-2.822.539-1.736.666-4.057-4.027-3.25-6.57.674-2.124-.683-3.224-2.92-2.365-1.675.643-2.233 3.396-.688 3.396.496 0 1.402 1.433 2.012 3.184.856 2.455.821 3.366-.152 3.984C99.74 20.452 99 20.138 99 18c0-1.313-.667-2-1.941-2-2.842 0-3.51 1.844-1.481 4.087 1.305 1.441 1.48 2.255.66 3.075C94.781 24.619 89 19.008 89 16.136c0-2.67-1.495-3.477-3.979-2.147-2.951 1.579-2.561 4.855.727 6.105C88.961 21.316 92 23.869 92 25.346c0 .57-.675.163-1.5-.905-1.485-1.921-1.515-1.921-3.004.005-1.593 2.063-1.091 3.139 1.728 3.707 1.15.232 1.448.787.895 1.671-.684 1.093-1.421 1.077-4.224-.095-1.867-.781-4.017-2.169-4.778-3.086C79.458 24.642 77 26.122 77 29.122c0 1.413.731 1.878 2.953 1.878 4.108 0 8.186 2.037 7.826 3.909-.173.901-1.344 1.561-2.789 1.572-3.25.025-4.232 4.381-1.168 5.183 1.089.284 2.187 1.602 2.44 2.927.413 2.159.112 2.409-2.901 2.409-3.518 0-4.398 1.813-2.407 4.96.788 1.245 1.241 1.174 3.075-.486 2.132-1.929 2.165-1.929 3.574-.002 1.252 1.712 1.208 2.161-.36 3.729-.98.981-3.04 1.887-4.576 2.014-4.071.337-5.066 2.071-2.797 4.873 1.63 2.013 2.131 2.156 3.515 1.007.888-.737 1.615-1.863 1.615-2.502 0-.639 1.259-1.906 2.798-2.815 2.664-1.573 2.86-1.556 4.058.363 1.096 1.754.992 2.086-.798 2.554-2.403.628-2.674 2.549-.602 4.269 1.823 1.512 3.544.53 3.544-2.023 0-1.068.306-1.941.679-1.941 1.728 0 7.321 2.496 7.321 3.267 0 1.456-2.237 5.162-3.913 6.483-1.436 1.131-1.412 1.386.26 2.681 2.379 1.843 4.901.927 4.131-1.499-.319-1.008.129-3.205.996-4.882 1.307-2.528 2.183-3.05 5.115-3.05 3.04 0 3.493.299 3.224 2.13-.45 3.061 2.654 4.832 4.766 2.72 1.269-1.269 1.38-2.058.519-3.668-1.494-2.791-1.459-2.875 1.52-3.622 3.217-.808 6.001 1.428 6.905 5.544.736 3.35 1.158 3.495 3.642 1.247 1.745-1.58 1.667-1.784-1.847-4.822-2.817-2.435-3.495-3.619-2.919-5.1.721-1.855.82-1.842 2.596.334 1.016 1.245 2.022 2.789 2.236 3.43.544 1.631 3.769.209 3.769-1.662 0-.842-.605-1.531-1.345-1.531s-2.16-.9-3.155-2c-.995-1.1-1.493-2-1.105-2 1.881 0 6.688 3.291 8.86 6.066 2.263 2.892 2.544 2.992 4.088 1.449.911-.912 1.657-2.315 1.657-3.118 0-1.479-.516-1.769-5-2.811-3.984-.925-7.111-3.824-6.015-5.578.708-1.134 1.211-1.212 2.095-.328.64.64 1.784.926 2.542.635 1.823-.7 1.765-3.999-.088-5.036-2.235-1.251-.799-5.279 1.883-5.279 1.2 0 2.723.54 3.383 1.2 1.575 1.575 3.532-.272 3.013-2.844-.386-1.908-2.813-2.262-6.063-.884-1.348.571-1.75.258-1.75-1.365 0-1.159.45-2.107 1-2.107 2.007 0 .974-4.074-1.25-4.929-2.205-.848-2.191-.888.72-2.027 1.634-.639 3.755-.957 4.714-.706 2.762.722 4.014-1.61 2.231-4.156-2.006-2.863-2.677-2.766-6.363.92-3.436 3.436-4.923 3.033-7.318-1.98-.689-1.442-2.261-2.766-3.493-2.942-2.985-.425-2.833-2.727.376-5.701 1.637-1.517 2.387-3.025 2.003-4.026-.958-2.496-4.078-1.296-4.426 1.702-.296 2.541-4.194 7.267-4.194 5.083 0-.589.531-1.248 1.18-1.465.682-.227.894-1.138.503-2.157-.952-2.481-4.157-1.601-4.298 1.179-.147 2.901-.89 3.609-2.954 2.817-1.661-.638-1.637-2.885.092-8.362.633-2.004.369-2.25-2.406-2.25C110.07 6 109 6.495 109 7.441m82.236 23.392c-1.001.635-.934 1.465.319 3.978 2.039 4.085 1.202 6.69-2.241 6.975-3.193.264-4.278-1.134-4.299-5.536-.015-3.299-1.238-4.028-3.915-2.333-1.155.731-1.024 1.364.75 3.62 2.508 3.188 2.777 6.008.65 6.825-1.025.393-1.5-.058-1.5-1.425 0-2.618-2.748-3.618-4.668-1.697-1.351 1.351-1.284 1.727.629 3.509 2.005 1.868 2.027 2.042.343 2.688-2.179.836-7.304-4.393-7.304-7.453 0-2.615-3.573-2.651-4.965-.05-1.477 2.761-1.421 2.865 2.615 4.808 2.007.967 4.307 2.883 5.109 4.258 1.34 2.295 1.332 2.346-.101.625-.932-1.119-2.216-1.625-3.184-1.253-1.84.706-1.6 4.128.29 4.128 2.154 0 1.829 1.987-.376 2.301-1.18.169-3.505-.87-5.27-2.355-2.576-2.167-3.431-2.431-4.638-1.429-1.546 1.283-2.025 3.937-.73 4.047 5.591.476 7.501.899 8.758 1.943 2.25 1.867 1.864 4.173-.638 3.806-2.899-.426-4.708 2.472-2.902 4.649.744.896 1.955 1.398 2.692 1.115.942-.362 1.34.405 1.34 2.579 0 2.913-.178 3.058-3.038 2.486-3.57-.714-4.745 1.026-2.954 4.374l1.163 2.172 2.411-2.265c2.639-2.479 2.858-2.437 3.834.742.818 2.664-2.505 5.335-6.639 5.335-2.803 0-3.4 1.214-2.17 4.418.904 2.357 4.286 1.911 5.486-.722.577-1.267 1.974-2.881 3.105-3.587 1.725-1.078 2.317-1.023 3.679.34 1.43 1.431 1.445 1.736.123 2.571-.825.521-1.95 1.107-2.5 1.301-1.307.462 1.328 3.679 3.014 3.679.698 0 1.543-1.089 1.877-2.42.598-2.385.663-2.398 4.487-.896 4.409 1.732 4.547 3.629.54 7.393-1.827 1.716-2.131 2.564-1.283 3.586.61.735 1.955 1.337 2.987 1.337 1.459 0 1.878-.739 1.878-3.309 0-4.551 2.031-6.93 6.29-7.366 3.384-.348 3.581-.208 3.401 2.402-.151 2.185.286 2.839 2.063 3.092 2.705.385 3.832-1.856 2.337-4.648-.917-1.714-.658-2.126 1.899-3.018 2.62-.913 3.193-.736 4.985 1.543 1.114 1.415 2.025 3.413 2.025 4.439 0 2.29 2.283 2.433 4.09.257 1.134-1.367 1.048-1.818-.569-3-1.047-.766-2.195-1.392-2.552-1.392-.356 0-1.153-1.109-1.771-2.464-.824-1.81-.827-2.648-.009-3.153 1.21-.748 3.811 2.192 3.811 4.308 0 1.793 2.473 1.649 4.035-.233 1.432-1.726.517-3.073-2.452-3.611-2.457-.445-3.31-2.847-1.011-2.847.955 0 3.45 1.8 5.543 4 4.36 4.584 5.608 4.905 6.8 1.75 1.063-2.814.537-3.75-2.106-3.75-2.767 0-9.002-3.924-8.518-5.36.211-.627 1.582-.995 3.046-.818 2.277.275 2.663-.052 2.663-2.25 0-1.55-.562-2.572-1.414-2.572-1.063 0-1.221-.681-.636-2.75.427-1.513 1.176-2.687 1.663-2.61.488.078 2.384.458 4.213.846 3.2.68 3.313.599 3-2.14-.223-1.945-.801-2.724-1.826-2.459-4.81 1.24-6 1.258-6 .09 0-.691.732-1.792 1.627-2.446 1.346-.984 1.419-1.577.423-3.438-.787-1.47-1.782-2.047-2.877-1.668-1.274.442-1.21.222.268-.923 1.068-.826 3.444-1.502 5.282-1.502 4.168 0 5.341-2.38 2.549-5.172l-2.005-2.005-3.122 3.338c-3.54 3.786-5.339 3.403-8.192-1.746-.886-1.598-2.437-2.909-3.446-2.911-3.107-.007-2.844-2.387.622-5.624 3.143-2.936 3.214-3.156 1.441-4.452-2.216-1.621-3.57-1.023-3.57 1.575 0 2.044-4.916 8.274-4.968 6.297-.018-.66.755-1.673 1.718-2.25 1.652-.99 1.643-1.131-.147-2.517C200.235 34.7 199 35.395 199 38.559c0 1.774-.546 2.441-2 2.441-1.596 0-2-.667-2-3.3 0-1.815.559-3.859 1.242-4.542 2.096-2.096-2.214-4.097-5.006-2.325M62.721 37.641c-2.183 3.595-3.216 4.463-4.812 4.046-1.231-.322-2.246.028-2.577.891C54.893 43.722 51.78 44 39.393 44H24v10h-7.326l4.089 3.75c2.249 2.063 5.247 4.559 6.663 5.547C28.842 64.285 30 65.695 30 66.43c0 .735.848 1.559 1.885 1.83 1.424.372 1.762 1.134 1.383 3.116L32.767 74H12.378l-4.149 7.196c-2.451 4.253-3.806 7.628-3.312 8.25.459.58.507 3.528.107 6.552-.591 4.459-.426 5.73.874 6.729 9.368 7.201 14.096 9.166 22.211 9.229 4.186.033 7.104.802 11.5 3.032 3.24 1.643 7.466 3.276 9.391 3.627 1.925.352 5.975 1.658 9 2.903 6.828 2.809 18.576 3.055 18.387.385-.08-1.126.611-1.518 2.338-1.329 1.348.148 2.548.417 2.666.598 2.547 3.902 3.393 5.711 2.899 6.205-.333.333-1.229.089-1.99-.543-1.051-.872-1.676-.84-2.592.133-.817.868-.863 1.412-.142 1.68.587.219 3.287 2.414 6 4.878 2.714 2.464 5.714 4.732 6.666 5.04.953.307 2.44 2.049 3.305 3.872.865 1.822 4.842 6.198 8.838 9.726 6.957 6.14 8.393 8.798 4.792 8.87-1.315.027-1.153.461.765 2.058 2.36 1.964 2.382 2.108.75 4.871-.925 1.565-1.682 3.58-1.682 4.477 0 2.859 3.05 6.413 6.072 7.077 1.609.353 3.601 1.607 4.427 2.786l1.501 2.143 2.25-2.287 2.25-2.287-2.961-2.391c-1.628-1.315-2.713-2.64-2.41-2.943.92-.919 8.995 5.454 8.311 6.56-.875 1.415 2.46 4.903 4.688 4.903 2.83 0 10.243 4.515 11.535 7.026.853 1.657.873 2.899.073 4.654-1.299 2.851.206 4.806 4.514 5.863 2.078.509 2.75.307 2.75-.828 0-.825-.675-1.76-1.5-2.077-.825-.316-1.5-1.043-1.5-1.615 0-1.701 3.952 1.248 4.656 3.475.786 2.484 3.586 6.428 4.594 6.471.412.017.75-.658.75-1.5 0-2.121 2.155-2.741 5.328-1.535 1.994.759 2.676.706 2.687-.209.011-.879.223-.906.75-.097.404.62 2.606 1.44 4.894 1.822 3.331.557 4.397 1.271 5.357 3.589 1.365 3.295 2.563 4.434 5.659 5.382 1.746.535 2.244.214 2.528-1.627.275-1.786.826-1.075 2.489 3.206 2.092 5.386 2.213 5.495 5.851 5.265 2.043-.129 4.219-.885 4.836-1.679.616-.795 2.211-1.589 3.543-1.765 3.786-.502 3.545-2.37-.859-6.644-4.15-4.028-5.266-7.177-2.542-7.177 2.451 0 9.355-5.034 10.093-7.358 1.745-5.5 8.355-6.154 15.548-1.538 3.153 2.023 4.838 3.805 4.838 5.117 0 1.52.489 1.884 1.999 1.49 1.099-.288 2.251-.115 2.559.383.308.498.035.906-.606.906s-.912.663-.601 1.474c.311.81-.166 1.883-1.061 2.384-1.499.839-1.494 1.192.065 4.478 1.95 4.109 6.396 9.664 7.734 9.664.501 0 .911-.675.911-1.5s.45-1.5 1-1.5 1.036-1.012 1.079-2.25c.043-1.238.306-1.687.583-1 .891 2.209 3.132 1.337 4.498-1.75.731-1.65 1.924-3 2.651-3 1.467 0 1.04-2.267-1.476-7.831-.828-1.832-1.297-3.54-1.042-3.795.851-.851-10.737-10.911-14.577-12.655-2.081-.945-5.82-1.719-8.309-1.719-2.489 0-4.285-.389-3.991-.864.293-.475-1.799-1.14-4.651-1.477-4.321-.512-5.534-.285-7.289 1.363-1.158 1.088-2.638 1.978-3.29 1.978-.653 0-1.186.395-1.186.879 0 .483-1.462 1.417-3.25 2.076-1.787.659-5.5 2.245-8.25 3.525-8.568 3.988-10.798 4.075-14.782.577-3.822-3.356-5.241-3.863-4.356-1.557.413 1.078-.103 1.5-1.834 1.5-1.326 0-2.688-.45-3.028-1-.34-.55-.141-1 .441-1 2.043 0 1.035-1.865-1.191-2.204-1.238-.189-2.146-.868-2.02-1.51.127-.642-1.137-2.206-2.808-3.476-6.327-4.811-13.172-12.495-15.507-17.409-1.333-2.804-3.321-5.911-4.419-6.905-2.357-2.133-2.615-6.734-.496-8.853 1.919-1.919 1.926-4.542.014-5.276-1.314-.504-1.314-.815 0-2.691.817-1.167 1.486-2.935 1.486-3.93 0-.995.563-2.025 1.25-2.288.902-.346 1.25-3.75 1.25-12.219 0-10.956.18-12.046 2.703-16.337 2.425-4.125 2.588-4.974 1.582-8.25-.616-2.009-1.495-3.652-1.953-3.652-.458 0-.832-.45-.832-1s.627-1 1.393-1c2.178 0 2.564-2.415.753-4.708-.905-1.147-3.671-3.081-6.146-4.299-2.475-1.217-5.675-3.313-7.111-4.657-1.673-1.566-4.126-2.583-6.826-2.83-2.317-.212-4.869-.93-5.67-1.595-1.117-.927-2.347-.942-5.283-.062-2.817.844-4.661.855-6.993.042-2.503-.873-4.207-.765-8.116.514-2.751.9-7.955 1.581-11.724 1.536-3.727-.046-8.014-.069-9.527-.052-1.513.017-2.75-.401-2.75-.929 0-1.648-4.667-1.05-7.084.907-2.249 1.821-2.38 1.821-5.361.004C64.843 76.607 64 76.542 64 78.523c0 1.339-.297 1.329-2.463-.091-2.299-1.506-2.363-1.768-.954-3.919.831-1.267 2.31-2.513 3.288-2.769 2.702-.707 6.439-9.445 5.779-13.513-.301-1.854-.16-4.39.313-5.635.474-1.245.51-2.831.081-3.525s.059-3.469 1.088-6.177C73.647 36.276 73.535 35 70.441 35c-1.451 0-2.292-.433-1.941-1 .34-.55-.196-.986-1.191-.968-1.058.018-2.963 1.931-4.588 4.609m134.077 77.895c-.345.345.004 2.14.777 3.99 1.657 3.965 1.09 6.067-1.842 6.834-2.999.784-4.733-1.041-4.733-4.982 0-2.677-.403-3.378-1.941-3.378-2.555 0-3.388 1.482-1.646 2.928 2.097 1.74 2.866 6.031 1.397 7.8-1.116 1.345-1.345 1.24-1.834-.845-.33-1.411-1.407-2.506-2.64-2.686-2.871-.418-3.74 2.407-1.272 4.135 1.651 1.157 1.751 1.577.599 2.533-1.939 1.609-6.309-1.975-7.166-5.877-.693-3.158-3.111-3.974-5.297-1.788-2.038 2.038-1.35 3.561 2.472 5.468 2.019 1.007 4.325 2.957 5.123 4.332l1.451 2.5-2.116-2.5c-1.796-2.122-2.265-2.273-3.107-1-1.598 2.416-1.178 4 1.06 4 1.236 0 1.904.508 1.641 1.25-.674 1.904-6.009 1.081-7.884-1.216-1.987-2.434-4.394-2.638-5.236-.444-.863 2.248.128 3.41 2.908 3.41 3.738 0 7.488 2.117 7.488 4.228 0 1.403-.491 1.751-1.859 1.317-2.224-.706-4.613 1.783-3.784 3.942.319.832 1.494 1.513 2.612 1.513 1.602 0 2.031.651 2.031 3.079 0 2.879-.189 3.038-2.905 2.442-3.282-.721-4.54.501-3.592 3.488.77 2.427 2.243 2.531 4.674.33 2.054-1.858 2.292-1.758 3.25 1.359.542 1.766.085 2.503-2.326 3.75-1.651.854-3.924 1.552-5.051 1.552-2.447 0-2.8 3.133-.563 4.989 1.79 1.486 4.513.647 4.513-1.39 0-.804 1.291-2.382 2.868-3.505 2.842-2.023 2.885-2.024 4.632-.094 1.701 1.879 1.67 1.985-.868 2.95-2.898 1.101-3.245 2.037-1.432 3.85 1.822 1.822 3.8 1.436 3.8-.741 0-2.725 1.22-3.18 4.853-1.808 3.893 1.469 4.064 3.923.521 7.466-2.503 2.503-2.54 2.689-.79 3.968 2.437 1.782 3.851 1.19 4.213-1.763.163-1.332.78-3.66 1.371-5.172.901-2.305 1.668-2.75 4.743-2.75 3.344 0 3.664.243 3.628 2.75-.03 2.107.488 2.825 2.215 3.07 2.686.382 3.834-1.853 2.364-4.6-.859-1.604-.617-2.127 1.411-3.051 1.346-.614 3.067-.878 3.824-.587 1.508.579 3.647 4.664 3.647 6.965 0 1.883 2.408 1.871 3.978-.02 1.006-1.212.555-2.102-2.549-5.029-2.708-2.554-3.465-3.862-2.687-4.64 1.398-1.398 3.143-.292 4.288 2.72.571 1.504 1.443 2.178 2.361 1.826 2.616-1.004 2.719-3.412.187-4.374-2.646-1.006-4.344-3.03-2.541-3.03 2.204 0 6.799 3.344 7.892 5.744 1.174 2.577 2.816 2.608 4.409.082 1.566-2.483.045-4.826-3.132-4.826-3.182 0-7.85-4.149-6.722-5.975.512-.828 1.052-.825 2.061.013.752.624 1.837.844 2.411.489 1.608-.993 1.237-4.527-.475-4.527-1.15 0-1.359-.667-.859-2.75.9-3.751 1.027-3.821 4.563-2.486 3.576 1.349 4.815.896 4.815-1.764 0-2.388-1.834-3.566-3.287-2.113-1.454 1.454-4.713 1.435-4.713-.027 0-.627.732-1.675 1.627-2.329 1.324-.968 1.41-1.592.464-3.36-.639-1.194-1.933-2.178-2.876-2.186-1.473-.013-1.503-.152-.215-.985.825-.533 3.161-.976 5.191-.985 4.407-.018 5.499-1.358 3.758-4.61-1.562-2.92-3.513-3.089-4.937-.428-1.816 3.393-4.882 4.451-7.095 2.448-1.054-.954-1.917-2.517-1.917-3.473 0-1.802-2.55-3.348-4.021-2.439-1.534.948-2.022-1.325-.84-3.919.641-1.405 1.996-2.82 3.013-3.142 2.147-.682 2.325-1.575.648-3.252-1.967-1.967-3.8-1.367-3.8 1.244 0 2.365-4.905 9.204-4.968 6.928-.018-.62.649-1.692 1.48-2.382 1.151-.955 1.241-1.583.378-2.623-1.982-2.388-3.89-1.587-3.89 1.633 0 2.383-.433 3-2.105 3-1.843 0-2.051-.466-1.669-3.75.239-2.062.624-4.425.855-5.25.28-1.004-.42-1.598-2.118-1.796-1.396-.163-2.82-.013-3.165.332M36.363 127.497c-.346.901-.119 2.147.504 2.77.623.623 1.133 2.344 1.133 3.825 0 2.092-.603 2.843-2.711 3.372-3.246.814-5.289-1.371-5.289-5.655 0-1.779-.528-2.809-1.441-2.809-2.314 0-2.797 1.823-1.117 4.221 1.952 2.787 2.013 6.39.12 7.117-.938.36-1.546-.207-1.75-1.633-.383-2.683-3.573-3.491-4.478-1.134-.419 1.093.017 2.213 1.2 3.077 1.396 1.021 1.573 1.645.714 2.504-1.756 1.756-6.031-1.532-7.03-5.407-1.021-3.962-4.496-4.963-6.197-1.785-1.239 2.316-.615 4.04 1.461 4.04 1.762 0 7.518 4.832 7.518 6.311 0 .624-.716.112-1.59-1.136-1.261-1.801-1.882-2.028-3-1.1-2.035 1.689-1.733 3.925.531 3.925 2.521 0 3.646 1.838 1.604 2.621-1.988.763-7.314-1.385-8.445-3.407-1.156-2.066-4.1-.806-4.1 1.755 0 1.51.654 2.031 2.55 2.031 3.749 0 8.495 2.718 7.82 4.479-.309.805-1.531 1.364-2.716 1.242-1.674-.172-2.224.392-2.47 2.529-.291 2.526.507 3.272 3.066 2.868.413-.065.75 1.268.75 2.961 0 2.902-.173 3.042-3 2.421-2.714-.596-3-.419-3 1.862 0 3.392 1.694 4.225 4.124 2.026 1.715-1.552 2.129-1.601 2.922-.348.508.803.93 1.997.939 2.653.023 1.837-4.111 4.307-7.208 4.307-3.006 0-3.84 2.537-1.577 4.8 1.872 1.872 3.742 1.421 4.932-1.19.599-1.315 2.177-2.973 3.508-3.685 2.058-1.101 2.663-1.051 4.051.338 1.51 1.51 1.433 1.723-1.029 2.845-2.972 1.354-3.207 1.947-1.462 3.692 1.924 1.924 3.713 1.394 4.389-1.3.345-1.375.749-2.5.897-2.5.945 0 7.514 3.129 7.514 3.579 0 1.237-2.381 4.974-3.646 5.721-1.836 1.084-1.71 3.349.228 4.093 2.821 1.083 3.418.659 3.418-2.428 0-4.76 2.637-7.965 6.553-7.965 3.005 0 3.305.264 3.135 2.75-.158 2.317.206 2.75 2.312 2.75 2.174 0 2.5-.441 2.5-3.383 0-2.604.523-3.577 2.274-4.226 2.676-.994 6.226 1.885 6.226 5.05 0 2.762 1.908 3.58 3.842 1.645 1.534-1.533 1.421-1.829-1.596-4.19-1.785-1.398-3.246-3.446-3.246-4.552 0-2.708 2.175-1.862 3.805 1.48 1.479 3.034 2.423 3.311 4.159 1.22 1.356-1.635.602-3.544-1.401-3.544-.725 0-1.878-.675-2.563-1.5-.917-1.105-.937-1.5-.073-1.5 2.514 0 7.205 3.217 8.091 5.548 1.213 3.189 3.715 3.131 5.197-.12 1.319-2.897.028-4.385-3.83-4.413-2.949-.021-7.429-3.738-6.723-5.577.437-1.139.894-1.222 1.942-.352.754.626 2.051.877 2.883.557 2.147-.824 1.877-3.735-.402-4.331-1.662-.435-1.777-.896-.873-3.49.794-2.277 1.488-2.85 2.915-2.405 1.03.32 2.768.859 3.861 1.196 2.449.756 3.79-1.97 2.019-4.105-.883-1.063-1.72-1.197-3.046-.487-4.095 2.191-6.89.11-3.338-2.487 2.033-1.487.985-5.527-1.44-5.549-1.452-.014-1.477-.149-.183-.985.825-.533 3.188-.976 5.25-.985 3.278-.013 3.75-.315 3.75-2.393 0-1.307-.67-2.933-1.489-3.613-1.224-1.016-2.119-.682-5.035 1.878-1.95 1.712-3.976 3.113-4.503 3.113-.526 0-1.754-1.687-2.729-3.75-1.348-2.853-2.366-3.75-4.258-3.75-3.292 0-2.883-3.163.807-6.227 2.487-2.065 2.562-2.346 1.04-3.868-2.01-2.011-3.833-1.069-3.833 1.98 0 1.246-1.125 3.323-2.5 4.615-2.745 2.579-3.497 2.14-.857-.5 1.482-1.482 1.492-1.794.096-3.19-1.968-1.968-3.739-.902-3.739 2.249 0 1.817-.54 2.441-2.109 2.441-2.207 0-2.181.304-.722-8.5.425-2.569-3.862-3.464-4.806-1.003m56.683 57.453c-1.217.77-1.243 1.312-.161 3.336 1.988 3.714 1.082 6.955-2.187 7.824-2.401.638-2.938.388-3.75-1.748-.522-1.371-.948-3.588-.948-4.927 0-1.453-.581-2.435-1.441-2.435-2.473 0-2.852 2.04-1.014 5.455 1.748 3.244 1.489 6.545-.514 6.545-.567 0-1.031-.873-1.031-1.941 0-2.356-1.275-3.274-3.41-2.455-2.105.808-2.023 3.357.16 4.964 1.662 1.225 1.66 1.324-.051 1.987-2.345.909-6.379-2.82-7.227-6.681-.734-3.344-2.442-3.67-4.915-.937-2.14 2.364-1.446 3.665 2.931 5.493 1.843.771 3.862 2.451 4.487 3.735 1.017 2.092.988 2.153-.28.585-1.761-2.177-3.294-2.237-4.091-.16-.826 2.151.103 3.41 2.514 3.41 1.1 0 1.722.45 1.382 1-1.125 1.82-5.3 1.039-8.403-1.572-3.42-2.878-5.097-2.506-5.097 1.131 0 2.057.482 2.441 3.066 2.441 2.475 0 6.061 1.16 7.708 2.492.15.122.008.911-.315 1.754-.371.966-1.342 1.336-2.626 1-1.144-.299-2.401.055-2.866.807-1.049 1.698.637 4.947 2.568 4.947.907 0 1.465.98 1.465 2.572 0 2.216-.38 2.527-2.75 2.25-2.245-.263-2.811.113-3.085 2.043-.544 3.845 1.433 4.861 4.271 2.195l2.462-2.313.672 2.678c.808 3.217-1.596 5.495-5.851 5.543-3.481.04-4.531 2.477-2.185 5.069 2.329 2.574 3.32 2.476 4.428-.436.501-1.32 1.927-3.11 3.168-3.98 2.067-1.447 2.414-1.439 4.111.097 1.791 1.621 1.765 1.723-.78 3.056-2.555 1.339-2.579 1.438-.832 3.369 1.682 1.858 1.883 1.877 3.05.281.687-.939 1.407-2.183 1.601-2.763.288-.864 5.549.474 7.544 1.919.65.471-2.817 6.251-3.983 6.64-1.902.634-.132 3.78 2.128 3.78 1.489 0 2.031-.654 2.031-2.453 0-4.896 1.944-7.332 6.171-7.735 3.614-.344 3.892-.198 3.392 1.792-.654 2.605 1.501 4.692 3.895 3.774 1.316-.505 1.574-1.396 1.113-3.851-.507-2.701-.229-3.362 1.807-4.289 2.03-.925 2.735-.746 4.514 1.147 1.159 1.234 2.108 3.259 2.108 4.499 0 1.764.488 2.186 2.24 1.936 3.141-.449 3.32-3.182.314-4.791-2.675-1.432-4.114-4.314-3.03-6.069.935-1.511 3.476.8 3.476 3.162 0 2.374 3.532 2.539 4.427.208.636-1.657-.872-3.285-3.07-3.315-.629-.008-1.402-.69-1.719-1.515-.316-.825-.252-1.498.143-1.496 1.623.008 7.168 4.031 8.19 5.942 1.4 2.616 3.65 2.631 5.04.033 1.338-2.5.52-3.979-2.202-3.979-2.767 0-9.002-3.924-8.518-5.36.211-.627 1.685-1.14 3.275-1.14 3.477 0 4.666-3.095 1.635-4.255-1.534-.587-1.77-1.223-1.107-2.995.897-2.399 4.662-3.094 6.548-1.208 1.421 1.421 3.596-1.257 2.77-3.41-.488-1.273-1.46-1.488-4.517-.999-3.187.509-3.895.327-3.895-1.005 0-.895.675-1.628 1.5-1.628 2.288 0 1.854-4.095-.5-4.71-4.26-1.114-.797-3.247 5.32-3.276 2.313-.012 2.762-.399 2.5-2.162-.176-1.181-1.113-2.644-2.082-3.25-1.446-.905-2.169-.591-4.045 1.761-2.786 3.492-5.642 3.23-7.521-.689-.738-1.541-1.867-2.955-2.507-3.142-4.686-1.368-4.693-1.376-3.507-3.979.63-1.383 2.003-2.787 3.051-3.119 2.555-.811 1.863-3.85-.969-4.254-1.712-.244-2.24.177-2.24 1.786 0 2.47-2.771 7.034-4.27 7.034-.572 0-.251-.872.713-1.937 2.01-2.221 1.33-4.063-1.502-4.063-1.457 0-1.941.695-1.941 2.786 0 2.119-.479 2.785-2 2.785-1.532 0-2-.666-2-2.851 0-1.568.496-3.779 1.103-4.913.847-1.583.789-2.26-.25-2.919-1.697-1.075-2.017-1.07-3.807.062" fill="#1976D2" fill-rule="evenodd"/><path fill-opacity=".309" d="M110 6.953c0 .524.507 2.066 1.127 3.426 2.054 4.508.476 7.116-5.675 9.382-5.996 2.209-5.563 2.364-7.017-2.511-.513-1.723-2.375-1.57-3.074.252-.334.87.354 2.257 1.634 3.293 1.84 1.49 1.979 1.982.827 2.938-2.058 1.708-7.457-2.082-8.985-6.307-1.386-3.833-3.244-4.403-4.81-1.477-.894 1.671-.565 2.176 2.305 3.538 1.842.874 4.343 2.935 5.559 4.579 2.166 2.931 2.173 3.037.354 5.35-1.762 2.239-2.057 2.291-5.787 1.008-2.163-.743-4.47-2.088-5.128-2.988-1.323-1.808-3.33-1.131-3.33 1.123 0 .793.885 1.441 1.966 1.441C83.864 30 89 33.232 89 35.685c0 2.61-.327 2.745-3.081 1.272-1.508-.808-2.082-.695-2.541.5-.326.849-.326 2.237 0 3.086.466 1.214 1.022 1.313 2.607.465 1.886-1.009 2.02-.772 2.085 3.707.039 2.632.435 5.685.881 6.785 1.139 2.813-1.431 5.393-6.12 6.143-3.905.624-4.78 2.008-2.631 4.157 1.762 1.762 3.498 1.464 4.063-.698.743-2.843 5.565-5.7 7.528-4.462 2.611 1.647 2.526 3.259-.238 4.518-1.433.653-2.443 1.672-2.246 2.264.532 1.598 3.691 1.939 3.708.401.039-3.323 1.501-3.984 5.827-2.634 2.287.714 4.158 1.801 4.158 2.415 0 .614-1.132 2.786-2.517 4.825-2.554 3.765-2.53 5.571.076 5.571.878 0 1.441-.996 1.441-2.55 0-1.402.661-3.828 1.47-5.392 1.182-2.286 2.274-2.919 5.582-3.234 4.043-.386 4.102-.345 3.547 2.43-.401 2.004-.115 2.994.986 3.417 2.474.949 4.109-1.33 2.64-3.682-1.66-2.658-1.633-2.727 1.698-4.449 2.828-1.463 3.007-1.412 5.5 1.551 1.417 1.684 2.577 3.928 2.577 4.986 0 2.153 1.05 2.473 2.7.823.8-.8.005-2.195-2.914-5.114l-4.013-4.013 2.515-2.516 2.516-2.515 4.348 2.388c2.391 1.313 4.797 3.408 5.346 4.655 1.211 2.75 3.887 2.495 4.304-.41.233-1.627-.359-2.236-2.611-2.687-1.601-.32-4.355-1.797-6.119-3.281-2.994-2.519-3.095-2.807-1.52-4.303 1.262-1.2 1.805-1.289 2.151-.354.747 2.014 3.297 1.434 3.297-.75 0-1.334-.667-2-2.003-2-1.87 0-1.913-.215-.651-3.25 1.364-3.279 2.248-3.571 7.122-2.347 2.064.518 2.532.273 2.532-1.325 0-2.267-1.568-3.586-2.49-2.094-.345.559-1.89 1.016-3.433 1.016-2.588 0-2.856-.367-3.457-4.75-.777-5.664.66-7.25 6.571-7.25 3.834 0 4.316-.514 3.202-3.418-.76-1.981-3.991-2.073-4.735-.134-.305.796-1.968 2.178-3.694 3.071-2.945 1.523-3.225 1.51-4.52-.198-.759-1.002-1.395-2.866-1.412-4.143-.025-1.786-.55-2.279-2.282-2.139-4.709.382-4.882.141-2.813-3.916 1.088-2.132 2.7-4.154 3.584-4.493 1.794-.688 1.089-2.63-.955-2.63-.724 0-1.592 1.238-1.929 2.75-.337 1.512-1.498 3.787-2.579 5.054-1.632 1.913-2.568 2.191-5.512 1.639-3.413-.641-3.546-.828-3.546-4.995 0-2.382.457-4.613 1.016-4.958.559-.346.758-1.047.441-1.559-.756-1.224-4.457-1.205-4.457.022M99.699 9.634c-.348.349.252 1.759 1.334 3.135 1.082 1.375 1.967 3.34 1.967 4.366 0 1.026.498 1.865 1.107 1.865.677 0 .812-.68.348-1.75-.418-.962-.965-3.212-1.217-5-.421-2.993-1.997-4.158-3.539-2.616m18.899 2.102c-.329.328-.598 1.717-.598 3.086 0 2.425.051 2.442 2 .678 1.1-.995 2-2.142 2-2.548 0-1.006-2.661-1.958-3.402-1.216M87.667 24.667c-1.255 1.255-.666 2.1 1.79 2.569 2.133.408 2.326.227 1.464-1.383-1.032-1.929-2.117-2.324-3.254-1.186m47.108 5.891c-1.002 1.002.424 4.442 1.842 4.442 1.503 0 1.72-.958.776-3.418-.622-1.621-1.628-2.014-2.618-1.024M191 31.8c0 .44.481 1.281 1.068 1.868.588.588.925 2.74.75 4.783-.3 3.51-.615 3.819-5.706 5.606-5.852 2.054-7.112 1.856-7.112-1.116 0-2.103-2.444-2.65-3.585-.804-.392.635.356 1.958 1.691 2.993 2.034 1.577 2.169 2.004.894 2.847-.825.546-1.872.999-2.327 1.008-1.601.029-6.673-5.854-6.673-7.741 0-2.675-.955-3.338-3.131-2.174-2.576 1.379-2.342 3.8.47 4.869 2.291.871 7.661 6.466 7.661 7.983 0 .422-.872 1.557-1.937 2.521-1.67 1.512-2.436 1.589-5.551.561-1.987-.656-4.134-2.027-4.771-3.047-.858-1.374-1.493-1.577-2.45-.784-2.35 1.951-1.466 3.827 1.805 3.827 2.844 0 8.925 2.713 8.889 3.966-.05 1.723-1.952 3.038-4.056 2.804-1.852-.206-2.429.205-2.429 1.73 0 1.396.644 1.98 2.134 1.933 1.84-.058 2.218.653 2.749 5.165.338 2.878.881 5.927 1.207 6.776.706 1.841-4.895 5.617-8.34 5.622-2.541.004-2.675.342-1.215 3.07 1.366 2.553 3.255 2.453 4.478-.238.543-1.194 2.159-3.033 3.592-4.086 2.599-1.912 2.61-1.91 5.347.626 1.508 1.397 4.31 3.058 6.227 3.691 3.091 1.02 3.415 1.45 2.86 3.796-.343 1.455-1.608 3.476-2.811 4.491-2.12 1.789-2.129 1.888-.31 3.218 2.209 1.615 3.74 1.01 2.911-1.15-.321-.837.217-3.297 1.195-5.468 1.686-3.738 2.015-3.946 6.235-3.946 3.836 0 4.36.243 3.774 1.75-1.226 3.151-1.062 3.698 1.217 4.046 2.37.361 2.714-.75 1.328-4.296-.633-1.619-.214-2.239 2.2-3.256 2.728-1.15 3.183-1.039 5.352 1.301 1.303 1.407 2.37 3.408 2.37 4.448 0 2.613 1.513 3.299 3.089 1.399 1.104-1.33 1.051-1.734-.332-2.508-.906-.507-2.621-2.288-3.809-3.957-2.069-2.906-2.086-3.117-.399-4.981.968-1.07 2.186-1.946 2.705-1.946 2.469 0 8.166 3.642 9.737 6.226 1.64 2.696 1.864 2.776 3.427 1.214 2.247-2.247 1.553-3.762-2.063-4.501-1.647-.337-4.433-1.676-6.19-2.975-2.806-2.075-3.017-2.541-1.73-3.827 1.221-1.221 1.73-1.245 3.057-.143 1.15.954 1.896 1.018 2.683.231 1.656-1.656.261-4.152-1.991-3.563-1.796.47-1.856.243-.817-3.077.903-2.885 1.621-3.585 3.678-3.585 1.405 0 3.095.54 3.755 1.2 1.608 1.608 3.71-.429 2.824-2.737-.439-1.146-1.188-1.433-2.382-.914-.958.416-2.811.8-4.118.854-1.879.077-2.439-.477-2.681-2.649-.168-1.51-.585-3.624-.925-4.698-.474-1.493.125-2.337 2.548-3.59 1.742-.901 4.043-1.409 5.112-1.13 2.57.672 3.568-2.019 1.511-4.075-1.446-1.446-1.842-1.308-4.538 1.577-1.624 1.739-3.85 3.162-4.945 3.162-1.875 0-3.758-2.464-3.33-4.355.423-1.866-2.165-3.611-4.49-3.027-3.732.937-2.467-4.275 1.875-7.731 2.119-1.686 1.655-3.887-.82-3.887-.793 0-1.441.924-1.441 2.053s-1.012 3.492-2.25 5.25c-1.866 2.651-2.804 3.144-5.497 2.884-4.458-.43-5.405-4.011-2.759-10.437.577-1.403.204-1.75-1.887-1.75-1.434 0-2.607.36-2.607.8M63.263 37.883c-2.625 4.224-3.388 4.816-5.649 4.384-1.788-.342-2.614-.068-2.613.866.002 1.109-2.835 1.31-15 1.067L25 43.9V54h-3.5c-1.925 0-3.5.254-3.5.565 0 .769 5.708 5.543 9.174 7.67C28.728 63.19 30 64.636 30 65.45c0 .814.923 1.974 2.052 2.578 1.307.699 1.943 1.892 1.75 3.285-.284 2.054-.942 2.217-10.791 2.687l-10.489.5-3.942 6.852c-2.939 5.11-3.691 7.248-2.957 8.413.661 1.047.583 3.071-.237 6.148-1.178 4.425-1.127 4.667 1.446 6.85 7.634 6.477 10.047 7.552 18.461 8.226 4.514.362 9.225 1.206 10.469 1.876 1.959 1.055 2.562.905 4.5-1.122 1.231-1.288 1.676-1.609.988-.713-.687.895-1.25 2.071-1.25 2.614 0 1.376 6.548 4.356 9.574 4.356 1.378 0 4.4.985 6.716 2.189 4.291 2.232 6.74 2.749 14.71 3.108 3.978.18 4.537-.058 4.82-2.047.175-1.237.625-2.252 1-2.254.374-.003.761-1.578.859-3.5.157-3.062-.116-3.496-2.191-3.496-1.304 0-2.647-.448-2.986-.996-.387-.627-1.713-.429-3.577.535-2.66 1.375-3.021 1.375-3.55-.004-.324-.844-1.2-1.535-1.947-1.535-.747 0-2.837-1.284-4.643-2.853-1.807-1.569-4.527-3.258-6.045-3.753-2.642-.862-2.676-.953-.787-2.133 1.653-1.032 1.881-.991 1.403.254-.358.934.026 1.485 1.037 1.485.884 0 2.475.787 3.535 1.75 5.637 5.115 9.568 6.913 11.538 5.278 1.066-.885 1.915-.96 2.784-.246.688.564 2.375 1.182 3.75 1.372 2.246.311 2.486.778 2.366 4.596-.13 4.122.363 4.73 3.484 4.302.743-.102 1.099.221.792.718-1.12 1.813 2.418 5.23 5.415 5.23 2.291 0 2.943-.45 2.943-2.031 0-1.118.703-2.302 1.563-2.632 1.109-.425 1.472-1.65 1.25-4.218-.305-3.528-.218-3.627 3.454-3.93 2.678-.222 4.23-1.017 5.365-2.75 1.892-2.888 3.187-3.069 4.927-.689 1.19 1.627 1.6 1.523 5.889-1.5 2.536-1.788 4.952-3.25 5.368-3.25.417 0 .824-.87.904-1.933.08-1.064 1.376-3.315 2.881-5.003 2.373-2.664 2.944-2.888 4.317-1.697 2.39 2.073 4.322 2.447 7.082 1.371 1.375-.536 3.85-1.148 5.5-1.361 1.65-.212 4.276-1.326 5.837-2.475 1.56-1.15 3.676-1.87 4.703-1.602 1.73.453 1.757.319.361-1.811-.828-1.264-2.564-2.564-3.857-2.889-1.293-.324-4.685-2.434-7.537-4.688-3.381-2.673-5.852-3.924-7.105-3.597-1.056.277-3.599-.314-5.652-1.313-2.535-1.233-4.275-1.524-5.425-.908-2.303 1.232-6.518 1.14-9.016-.196-1.387-.743-2.752-.783-4.184-.125a117.98 117.98 0 01-4.708 2.005c-2.873 1.142-20.367 1.105-21.518-.046-1.374-1.374-5.28-.735-9.031 1.478-2.06 1.216-3.44 1.715-3.066 1.11.375-.606-.399-1.809-1.718-2.673-2.114-1.385-2.467-1.394-2.973-.074-.508 1.322-.929 1.314-3.601-.068l-3.026-1.565 2.196-2.97c1.208-1.633 2.777-2.97 3.488-2.97 2.883 0 5.47-7.865 5.708-17.353.126-5.031.768-10.13 1.427-11.331.658-1.202 1.197-3.313 1.197-4.693 0-2.007-.418-2.428-2.092-2.105-1.513.291-1.936-.002-1.531-1.058 1.344-3.501-2.343-1.033-5.114 3.423m118.996-4.043c-.859.531-.49 2.093 1.344 5.696 1.39 2.73 2.219 3.839 1.842 2.464-.377-1.375-.784-3.74-.904-5.256-.262-3.3-.713-3.874-2.282-2.904m17.097 4.659c.168 2.924.304 2.984 2.279 1.009 1.625-1.625 1.04-3.508-1.088-3.508-.796 0-1.277 1.009-1.191 2.499M80.598 47.842c-.857 1.386.379 4.158 1.854 4.158.681 0 2.053-.9 3.048-2 1.555-1.719 1.589-2 .237-2-.865 0-2.24-.256-3.054-.568-.814-.313-1.753-.128-2.085.41m88.078 1.56c-.677 1.765.133 2.598 2.526 2.598 1.558 0 1.691-.332.798-2-1.252-2.339-2.565-2.575-3.324-.598M216 56.917c0 1.228.646 2.083 1.573 2.083.932 0 1.442-.68 1.25-1.667-.486-2.509-2.823-2.853-2.823-.416m-88.75.662c.963 1.143 1.75 2.831 1.75 3.75 0 2.071 1.355 2.154 2.99.183 1.01-1.217.895-1.61-.627-2.152-1.025-.365-2.763-1.383-3.863-2.262-1.951-1.559-1.957-1.547-.25.481M162 73.941c0 2.877 1.67 3.389 3.871 1.188 1.925-1.925 1.923-1.95-.213-2.523-3.303-.886-3.658-.756-3.658 1.335m46.785 8.559c.588 1.1 1.332 2.838 1.654 3.863.478 1.523.855 1.638 2.073.627 1.781-1.478 1.941-2.99.317-2.99-.644 0-2.058-.787-3.142-1.75-1.896-1.684-1.93-1.675-.902.25M63.924 85.75L61.5 88.5l2.75-2.424C66.82 83.81 67.459 83 66.674 83c-.179 0-1.416 1.237-2.75 2.75m109.3-.302c-2.364 1.089-2.643 3.58-.48 4.3.684.228 1.709-.809 2.278-2.305 1.233-3.243 1.138-3.348-1.798-1.995M54.564 97.293c.376.986.935 1.541 1.243 1.233.308-.307.001-1.114-.683-1.793-.988-.98-1.102-.865-.56.56m-7.327 8.467c-1.168 2.491-1.14 2.572.366 1.066.896-.896 1.464-2.109 1.263-2.695-.201-.586-.935.147-1.629 1.629m150.236 10.284c-.355.574-.127 1.667.505 2.43.633.763 1.01 3.027.837 5.032-.298 3.445-.615 3.746-5.787 5.491-5.908 1.993-7.028 1.851-7.028-.889 0-2.303-.853-3.102-2.598-2.432-1.985.762-1.74 2.23.701 4.206 1.85 1.498 1.921 1.853.589 2.958-1.256 1.043-2.122.722-5.102-1.895-1.975-1.734-3.59-3.979-3.59-4.99 0-2.46-1.75-3.408-3.544-1.919-2.272 1.886-1.728 3.609 1.57 4.975 1.664.689 3.934 2.529 5.045 4.088 1.883 2.645 1.911 2.999.415 5.282-1.407 2.148-1.991 2.335-4.788 1.532-1.752-.502-3.283-.913-3.402-.913-.12 0-1.156-1.006-2.302-2.237-1.77-1.9-2.225-2.013-3.023-.75-1.606 2.54-1.152 4.179.972 3.505 1.936-.614 10.072 2.831 10.042 4.252-.038 1.782-1.68 2.955-3.985 2.847-1.872-.088-2.5.385-2.5 1.883 0 1.478.587 1.938 2.25 1.762 1.845-.196 2.25.256 2.25 2.506 0 1.51.459 4.317 1.02 6.239.921 3.152.769 3.712-1.556 5.743-1.416 1.238-3.649 2.25-4.961 2.25-3.288 0-3.833 1.371-1.627 4.096l1.866 2.304 1.544-2.986c.849-1.641 2.681-3.593 4.071-4.337 2.299-1.231 2.814-1.111 5.724 1.338 1.759 1.48 4.485 2.948 6.059 3.263 1.573.315 2.86 1.213 2.86 1.997 0 2.071-2.758 7.078-4.156 7.544-1.556.518-.161 2.781 1.715 2.781.793 0 1.441-.885 1.441-1.966s.758-3.556 1.685-5.5c1.548-3.245 2.041-3.534 6.035-3.534 4.055 0 4.277.137 3.269 2.021-1.317 2.461-.528 3.979 2.07 3.979 2.116 0 2.517-2.056.965-4.955-.805-1.505-.45-2.04 2.039-3.071 2.712-1.123 3.263-1.016 5.476 1.063 1.354 1.271 2.461 3.358 2.461 4.637 0 1.359.599 2.326 1.441 2.326 2.68 0 2.828-2.21.293-4.361-4.239-3.597-4.911-5.808-2.537-8.343l2.064-2.203 3.761 1.918c2.068 1.055 4.66 3.155 5.761 4.666 1.723 2.365 2.225 2.561 3.609 1.413 2.482-2.061 1.962-4.09-1.048-4.09-3.018 0-9.344-4.395-9.344-6.492 0-1.978 2.075-3.005 3.011-1.49.98 1.586 4.319.446 3.715-1.269-.243-.687-1.222-1.18-2.175-1.095-1.312.117-1.593-.371-1.156-2 .318-1.185.584-2.716.591-3.404.018-1.58 6.627-1.686 7.593-.122.477.771.988.61 1.614-.508 1.473-2.632.152-3.413-4.827-2.852-2.832.319-4.434.152-4.077-.426.323-.524.212-2.622-.248-4.662-.719-3.187-.538-3.919 1.283-5.195 1.167-.817 3.596-1.485 5.399-1.485 3.32 0 3.764-.568 2.67-3.418-.823-2.145-3.101-1.997-4.32.281-.548 1.024-2.416 2.451-4.15 3.169-2.838 1.175-3.268 1.114-4.289-.613-.624-1.055-1.134-2.819-1.134-3.919 0-1.657-.577-1.954-3.363-1.731-3.206.257-3.333.139-2.713-2.5.358-1.523 1.785-3.782 3.172-5.021 2.551-2.28 2.48-4.248-.155-4.248-.793 0-1.441.918-1.441 2.04 0 2.864-4.004 7.96-6.254 7.96-3.671 0-5.746-1.927-5.746-5.335 0-1.796.559-3.824 1.242-4.507.988-.988.938-1.433-.25-2.184-1.937-1.225-2.729-1.209-3.519.07m-9.979 2.966c-.38.614.029 1.911.908 2.882.879.971 1.598 2.491 1.598 3.378 0 .886.498 1.92 1.107 2.296.768.475.863-.044.311-1.691-.438-1.306-.862-3.475-.942-4.82-.159-2.657-1.876-3.834-2.982-2.045m17.756 4.42c0 2.126.235 2.284 1.875 1.26 1.031-.644 1.875-1.738 1.875-2.431 0-.692-.844-1.259-1.875-1.259-1.319 0-1.875.721-1.875 2.43M36 127.941c0 .518.45 1.219 1 1.559.55.34 1 2.616 1 5.059 0 3.678-.323 4.441-1.878 4.441-1.033 0-3.573.708-5.645 1.574-3.879 1.621-5.421.965-5.462-2.324-.017-1.452-2.625-1.691-3.473-.318-.316.512.391 1.608 1.573 2.436 2.056 1.44 2.092 4.632.051 4.632-1.897 0-6.471-4.485-7.787-7.636-1.431-3.425-3.649-3.708-4.836-.617-.612 1.596.941 3.209 3.118 3.238 1.437.019 6.351 5.738 6.307 7.342-.017.645-.618 1.945-1.334 2.888-1.091 1.435-1.903 1.549-4.975.701-2.02-.557-4.53-1.935-5.579-3.061l-1.907-2.047-1.122 2.096c-.617 1.153-.993 2.147-.836 2.21.157.063 1.488.258 2.957.434 1.47.176 4 1.007 5.623 1.846 1.623.84 3.174 1.304 3.446 1.032.272-.273.272.669 0 2.091-.432 2.263-.853 2.508-3.367 1.955-2.609-.573-2.874-.383-2.874 2.057 0 2.327.318 2.608 2.364 2.094 2.272-.57 2.387-.33 2.947 6.142.516 5.973.349 6.933-1.475 8.485-1.132.963-3.358 1.75-4.947 1.75-3.115 0-3.993 2.496-1.689 4.8 1.723 1.723 2.338 1.509 3.594-1.247.613-1.346 2.253-3.193 3.643-4.104 2.428-1.59 2.654-1.551 5.685 1 1.737 1.461 4.444 2.914 6.018 3.229 3.673.735 3.83 4.016.388 8.106-2.618 3.111-2.422 4.216.746 4.216 1.346 0 1.757-.477 1.342-1.558-.329-.857.307-3.332 1.414-5.5 1.829-3.586 2.368-3.942 5.965-3.942 3.861 0 3.941.071 3.355 3-.512 2.559-.296 3 1.466 3 2.545 0 3.795-1.789 2.297-3.287-1.812-1.812-1.288-3.312 1.618-4.636 2.516-1.147 2.947-1.001 5.5 1.855 1.523 1.705 2.769 3.767 2.769 4.584 0 1.869 2.606 1.954 3.314.108.301-.784-.405-1.808-1.643-2.383-1.194-.554-2.948-2.349-3.898-3.99-1.654-2.856-1.646-3.056.183-4.711 1.331-1.205 2.778-1.538 4.775-1.099 2.91.639 7.729 4.44 8.478 6.686.643 1.929 3.791.19 3.791-2.096 0-1.532-.653-2.031-2.656-2.031-2.494 0-9.362-4.271-9.329-5.801.009-.384.431-1.356.939-2.159.797-1.26 1.184-1.225 2.816.252 2.107 1.907 3.23 1.36 3.23-1.575 0-1.456-.505-1.818-1.995-1.428-1.725.45-1.909.161-1.362-2.134.348-1.46.823-2.993 1.054-3.405.628-1.119 6.089-.906 6.813.266.938 1.518 2.49.156 2.49-2.183 0-1.746-.408-1.942-2.75-1.324-5.079 1.342-5.447 1.133-6.724-3.807-1.231-4.76-1.219-4.809 1.567-6.25 1.544-.799 3.955-1.452 5.357-1.452 1.896 0 2.55-.521 2.55-2.031 0-3.005-2.843-3.637-4.665-1.037-2.314 3.304-6.213 4.488-8.366 2.54-1.006-.911-1.537-2.408-1.247-3.517.565-2.162-2.471-3.979-3.599-2.154-.387.626-1.239.745-1.994.279-1.066-.659-.985-1.461.426-4.197.958-1.861 2.583-3.976 3.611-4.701 1.027-.726 1.608-1.738 1.292-2.25-1.284-2.077-3.082-.604-5.348 4.378-2.282 5.018-2.543 5.238-5.775 4.861-3.725-.435-5.785-3.05-4.89-6.209L40.567 129c.462-1.628.09-2-2-2-1.412 0-2.567.423-2.567.941m-8.912 1.984c-1.194.755-1.156 1.15.248 2.554.914.914 1.935 2.754 2.271 4.091.335 1.336 1.027 2.43 1.537 2.43.509 0 .395-.993-.255-2.208-.65-1.214-1.146-3.464-1.102-5 .084-2.959-.422-3.309-2.699-1.867M45 134.655c0 2.581.055 2.605 1.976.866 2.099-1.898 1.852-3.521-.535-3.521-.893 0-1.441 1.01-1.441 2.655M175 134c0 1.842.489 2.407 2.194 2.533 1.34.098 1.489-.257.714-1.704-1.046-1.955-2.908-2.486-2.908-.829m47.404 6.389c-.652 1.699.225 3.611 1.655 3.611 1.261 0 1.207-3.718-.066-4.504-.554-.343-1.269.059-1.589.893m-207.737 4.278c-1.521 1.52-.519 3.333 1.841 3.333 2.259 0 2.384-.2 1.26-2-1.322-2.118-2.018-2.417-3.101-1.333m46.348 7.083c.009.412.408 1.37.889 2.128 1.109 1.752 3.197.549 2.445-1.41-.572-1.491-3.362-2.092-3.334-.718M168 158.422c0 3.35 1.069 3.751 3.897 1.461 2.705-2.191 2.648-2.351-1.147-3.261-2.434-.584-2.75-.377-2.75 1.8m-55.725.633c-.279 1.07-1.131 1.945-1.892 1.945-.76 0-1.383.45-1.383 1s.675 1 1.5 1c1.788 0 2.084 4.639.333 5.222-1.815.605-1.372 6.525.655 8.765 1.002 1.107 2.635 2.013 3.628 2.013.993 0 2.708.968 3.81 2.151 1.665 1.787 2.265 1.936 3.539.878 2.226-1.848 1.888-3.547-.965-4.847-1.375-.627-2.5-1.599-2.5-2.161 0-3.374 8.602 2.243 10.022 6.545.779 2.36 1.747 3.434 3.095 3.434 2.647 0 9.334 3.494 11.845 6.189 2.279 2.447 2.65 5.799.842 7.607-.929.929-.761 1.519.75 2.637 4.53 3.353 7.24 2.207 3.791-1.604-1.088-1.203-1.237-1.829-.434-1.829 2.739 0 5.089 2.166 5.089 4.69 0 2.581.031 2.592 2.057.759 1.358-1.23 1.871-2.601 1.509-4.041-.333-1.326.072-2.693 1.034-3.491 1.433-1.189 1.414-1.434-.201-2.614-.98-.717-1.3-1.303-.713-1.303.588 0 1.58.615 2.204 1.367.862 1.039.781 1.661-.335 2.588-.947.785-1.273 2.204-.916 3.988.393 1.967.096 2.945-1.026 3.375-.935.359-1.335 1.244-.979 2.17.422 1.1.96 1.264 1.818.552 1.307-1.085 10.548-1.041 10.548.05 0 .36 1.696.926 3.77 1.257 2.882.461 4.218 1.374 5.674 3.878 3.117 5.358 6.793 6.517 8.007 2.525.504-1.66.818-1.856 1.196-.75.281.825.774 2.175 1.096 3 .862 2.212.994 2.798 1.132 5 .102 1.635.833 2 4.003 2 2.226 0 4.407-.639 5.122-1.5.685-.825 2.104-1.5 3.154-1.5 3.73 0 3.259-3.003-1.18-7.527-3.643-3.712-4.102-4.614-3.013-5.926.706-.851 1.91-1.547 2.675-1.547 2.298 0 8.338-4.385 8.352-6.062.006-.859 1.408-2.594 3.113-3.855 2.342-1.731 3.866-2.14 6.225-1.668 4.048.81 10.655 5.405 11.692 8.132.653 1.717 1.46 2.055 4.146 1.739 2.742-.323 3.024-.197 1.586.71-.963.607-1.75 1.981-1.75 3.054 0 1.072-.675 1.95-1.5 1.95-2.277 0-1.87 1.218 2.689 8.046 3.871 5.796 4.263 6.109 5.153 4.113.53-1.187 1.393-2.159 1.918-2.159.525 0 .695-.675.378-1.5-.683-1.781.49-1.972 2.119-.343.875.875 1.592.391 2.95-1.994.986-1.733 2.131-3.153 2.543-3.157 1.325-.011.802-4.008-.956-7.306-.938-1.76-1.63-3.485-1.538-3.834.092-.349-1.987-2.88-4.619-5.626-5.403-5.636-12.528-9.24-18.264-9.24-2.13 0-3.873-.488-3.873-1.083 0-.596-.562-.89-1.25-.654-.687.236-2.577.054-4.199-.404-2.271-.642-3.421-.414-5 .992-3.055 2.719-8.664 5.801-11.99 6.587-1.616.382-4.245 1.625-5.841 2.762-1.597 1.136-4.914 2.293-7.372 2.57-4.03.454-4.83.17-8.116-2.883-2.005-1.863-3.02-2.567-2.257-1.566 1.293 1.697 1.12 1.799-2.543 1.5-3.097-.253-3.87-.693-3.638-2.071.169-1.008-.331-1.75-1.181-1.75-.81 0-1.618-1.012-1.793-2.25-.208-1.461-1.022-2.263-2.321-2.287-1.101-.021-2.614-.416-3.362-.878-.851-.526-1.688-.325-2.233.537-.574.906-.879.97-.889.187-.024-1.887 1.936-2.594 3.529-1.273 3.067 2.546 1.217.197-4.801-6.093-3.442-3.597-7.117-8.446-8.167-10.775-1.314-2.914-2.232-3.912-2.943-3.201-1.942 1.942-4.526 1.351-12.545-2.873-2.588-1.363-4.038-1.566-6-.838-1.959.727-3.89.461-7.946-1.093-5.283-2.024-5.365-2.026-5.867-.108m102.479 8.099c.685.685 1.246 2.089 1.246 3.119 0 1.212.589 1.759 1.667 1.55 2.938-.569 2.532-2.577-.863-4.271-1.813-.904-2.736-1.084-2.05-.398M7.015 169.25c.009.688.431 1.907.939 2.71.791 1.25 1.221 1.192 2.985-.405C13.781 168.983 13.522 168 10 168c-1.742 0-2.994.524-2.985 1.25m171.587 1.251c-1.564 1.183-1.676 1.705-.637 2.957 1.589 1.914 2.661 1.278 3.277-1.943.547-2.862.051-3.052-2.64-1.014M54.265 178.74c.954 1.055 1.735 2.445 1.735 3.089 0 .644.675 1.171 1.5 1.171 2.594 0 1.621-2.424-1.741-4.338-3.177-1.809-3.201-1.808-1.494.078m-36.015 2.697c-2.639 1.217-2.781 1.877-.767 3.549 1.232 1.023 1.661.766 2.528-1.516 1.243-3.268 1.149-3.376-1.761-2.033m74.293 4.494c-.317.512-.118 1.213.441 1.559.559.345 1.013 2.514 1.009 4.819l-.007 4.191-5.498 1.806c-5.93 1.948-7.488 1.664-7.488-1.365 0-2.103-2.444-2.65-3.585-.804-.391.632.313 1.904 1.585 2.863 2.374 1.791 2.023 4-.636 4-2.236 0-7.364-5.518-7.364-7.923 0-2.294-1.936-2.741-3.8-.877-1.852 1.852-1.478 2.574 2.241 4.339 4.93 2.34 7.144 6 5.493 9.084-.699 1.307-2.118 2.377-3.153 2.377-2.435 0-7.781-2.766-7.781-4.026 0-1.594-2.736-1.105-3.393.608-.895 2.331-.828 2.418 1.859 2.418 2.71 0 9.534 2.937 9.534 4.103 0 .404-.27 1.437-.6 2.297-.475 1.237-1.023 1.337-2.627.478-1.543-.825-2.232-.761-2.884.269-1.312 2.073-.475 3.353 2.194 3.353 2.24 0 2.466.476 3.08 6.5.618 6.059.496 6.653-1.806 8.75-1.358 1.238-3.568 2.25-4.913 2.25-2.517 0-2.886.685-1.837 3.418.84 2.189 3.131 1.983 3.871-.348.337-1.062 1.997-2.808 3.689-3.879 2.847-1.802 3.205-1.826 4.794-.319 1.875 1.777.931 4.128-1.657 4.128-2.039 0-1.185 3.399.957 3.812 1.187.228 1.739-.305 1.739-1.68 0-1.108.459-2.298 1.02-2.644 1.62-1.001 7.98 1.514 7.98 3.155 0 1.968-1.97 5.594-3.754 6.91-1.227.905-1.21 1.232.12 2.336 1.852 1.537 3.998.503 3.211-1.548-.307-.801.346-3.231 1.453-5.399C87.872 241.33 88.381 241 92.1 241c3.96 0 4.043.071 3.421 2.905-.698 3.177.385 4.452 2.946 3.469 1.051-.403 1.405-1.22.977-2.253-1.665-4.022-1.513-4.768 1.22-6.014 2.6-1.184 2.993-1.056 5.567 1.825 1.523 1.705 2.769 3.992 2.769 5.084 0 2.209 1.036 2.548 2.7.884.8-.8.036-2.164-2.8-5-2.145-2.145-3.886-4.238-3.869-4.65.018-.412 1.133-1.551 2.48-2.531 2.361-1.718 2.59-1.708 6.508.291 2.234 1.139 4.565 3.178 5.182 4.531 1.294 2.841 2.071 3.041 3.788.972 1.493-1.799.608-4.679-1.222-3.977-1.629.625-9.767-4.541-9.767-6.2 0-1.894 1.937-2.633 3.5-1.336 1.638 1.359 3.5.529 3.5-1.559 0-.793-.909-1.441-2.019-1.441-1.695 0-1.914-.441-1.362-2.75.362-1.512.847-3.088 1.078-3.5.62-1.105 5.084-.913 5.803.25 1.23 1.991 3.65 1.073 3.296-1.25-.215-1.408-.896-2.101-1.82-1.851-6.465 1.749-6.717 1.616-7.479-3.924-.876-6.369.609-7.735 7.664-7.042 2.48.243 2.954-1.324 1.169-3.872l-1.586-2.265-2.402 2.591c-3.285 3.543-7.049 4.396-8.804 1.995-.749-1.023-1.137-2.222-.863-2.665.871-1.409-1.824-3.838-3.091-2.787-.633.526-1.741.591-2.462.145-1.722-1.064.957-6.511 4.005-8.143 1.885-1.009 1.947-1.287.586-2.648-1.586-1.586-4.201-.882-3.134.844.336.544-.555 2.673-1.981 4.73-2.287 3.301-2.994 3.694-6.012 3.342-3.928-.459-5.256-3.307-3.588-7.696.551-1.449 1.002-3.055 1.002-3.569 0-1.214-3.707-1.218-4.457-.004m-9.973 2.956c-.301.487.093 1.418.877 2.069.783.65 1.714 2.501 2.068 4.113.354 1.612 1.058 2.931 1.564 2.931 1.238 0 1.165-1.356-.142-2.663-.585-.585-1.103-2.475-1.152-4.2-.085-2.974-1.958-4.285-3.215-2.25m18.43 3.621c0 2.237.211 2.377 1.949 1.292 1.448-.904 1.673-1.55.878-2.509-1.676-2.019-2.827-1.524-2.827 1.217m-30.552 10.785c-.837 2.16-.169 3.001 2.024 2.545 1.452-.301 1.468-.554.15-2.338-1.391-1.881-1.52-1.894-2.174-.207M117 209.835c0 1.856 1.207 4.165 2.177 4.165 1.39 0 .559-4.266-.927-4.755-.687-.226-1.25.039-1.25.59m-54 17.989c0 3.091 1.712 3.548 4.645 1.241 1.494-1.175 2.028-2.071 1.24-2.079-.762-.007-2.398-.285-3.635-.616-1.8-.483-2.25-.191-2.25 1.454m47.841 10.567c.912 1.946 2.109 3.404 2.659 3.241 1.491-.444 1.844-3.632.402-3.632-.684 0-2.027-.708-2.983-1.573-1.648-1.492-1.652-1.391-.078 1.964" fill="#1976D2" fill-rule="evenodd"/><path fill-opacity=".567" d="M110.5 8c.34.55 1.266 1 2.059 1 .793 0 1.441-.45 1.441-1s-.927-1-2.059-1c-1.132 0-1.781.45-1.441 1m15 2c.34.55 1.068 1 1.618 1s.722-.45.382-1c-.34-.55-1.068-1-1.618-1s-.722.45-.382 1m-6 3c.34.55.816 1 1.059 1s.441-.45.441-1-.477-1-1.059-1-.781.45-.441 1m-34.596 3.615c-1.16 1.398-1.086 1.566.545 1.25 1.037-.201 2.073-.927 2.301-1.615.594-1.784-1.26-1.546-2.846.365M95.5 18c-.34.55.084 1 .941 1S98 18.55 98 18s-.423-1-.941-1-1.219.45-1.559 1m30.5 3.5c0 .825.73 1.5 1.622 1.5 1.329 0 1.398-.271.378-1.5-.685-.825-1.415-1.5-1.622-1.5-.208 0-.378.675-.378 1.5m-20.061.846c-1.341.671-2.441 2.068-2.443 3.105-.005 2.175-1.984 3.187-3.004 1.537-.48-.777-1.246-.615-2.51.528-1.756 1.589-1.748 1.718.217 3.683 1.65 1.65 1.777 2.202.669 2.904-2.315 1.466-3.714.999-4.048-1.353-.286-2.009-.503-1.875-2.027 1.25l-1.707 3.5 3.457.31c4.972.447 4.72 3.205-.265 2.91l-3.722-.22.31 3.889c.314 3.926 3.264 10.66 5.449 12.439.652.53 2.947 1.445 5.1 2.033 3.33.909 4.115.813 5.25-.646 1.26-1.618 1.412-1.616 2.695.035 2.184 2.809 3.83 2.137 3.465-1.416-.195-1.897.176-3.333.925-3.583.824-.275 1.25.657 1.25 2.733 0 2.81.244 3.074 2.25 2.446 3.326-1.042 6.998-4.159 5.784-4.909-1.362-.842-1.336-4.521.032-4.521.586 0 1.891.442 2.9.982 1.339.717 1.977.608 2.365-.403.674-1.756-.149-2.579-2.581-2.579-1.111 0-1.724-.525-1.458-1.25.252-.687 1.077-1.083 1.833-.878.756.204 2.101.578 2.987.831 2.179.619 3.006-2.869 1.102-4.648-1.308-1.222-1.29-1.526.152-2.58 2.285-1.672 2.037-5.189-.46-6.525-1.359-.728-1.922-1.78-1.603-2.999.27-1.033-.189-2.441-1.019-3.13-1.257-1.043-1.985-.72-4.356 1.933-1.685 1.887-3.112 2.758-3.497 2.135-.357-.578.556-2.31 2.03-3.848l2.679-2.797-3.219-1.122c-4.657-1.623-6.32-1.396-7.434 1.015-1.247 2.7-2.688 2.723-4.048.064-.929-1.818-1.362-1.924-3.5-.855m5.061.213c0 .857.45 1.281 1 .941.55-.34 1-1.041 1-1.559s-.45-.941-1-.941-1 .702-1 1.559M140 24c0 1.131.667 2 1.535 2 1.225 0 1.319-.404.465-2-.589-1.1-1.28-2-1.535-2-.256 0-.465.9-.465 2m-61.394 4.584c-.373.973-.15 1.431.581 1.187C80.682 29.273 81.505 27 80.19 27c-.537 0-1.249.713-1.584 1.584M105 32.073c0 2.563 3.31 2.272 3.812-.334.231-1.2-.308-1.739-1.739-1.739S105 30.642 105 32.073m-9 .368c0 .857.45 1.559 1 1.559s1-.423 1-.941-.45-1.219-1-1.559c-.55-.34-1 .084-1 .941M106 32c0 .55.45 1 1 1s1-.45 1-1-.45-1-1-1-1 .45-1 1m29-.059c0 .518.45 1.219 1 1.559.55.34 1-.084 1-.941S136.55 31 136 31s-1 .423-1 .941m57.553-.026a1.116 1.116 0 00.362 1.532c.521.322 1.21.159 1.532-.362a1.116 1.116 0 00-.362-1.532 1.116 1.116 0 00-1.532.362M101.5 35c-.34.55-.141 1 .441 1S103 35.55 103 35s-.198-1-.441-1-.719.45-1.059 1m13.959.067c-.363.586-.445 1.281-.183 1.543s.743-.218 1.069-1.067c.676-1.762.1-2.072-.886-.476m10.242-.435c-1.571 1.571-.572 3.368 1.872 3.368 1.906 0 2.487-.451 2.239-1.739-.351-1.82-2.907-2.833-4.111-1.629m56.299.427c0 .582.45.781 1 .441s1-.816 1-1.059-.45-.441-1-.441-1 .477-1 1.059M207 35c0 .55.702 1 1.559 1s1.281-.45.941-1c-.34-.55-1.041-1-1.559-1s-.941.45-.941 1m-80 1c0 .55.45 1 1 1s1-.45 1-1-.45-1-1-1-1 .45-1 1m-43 3c0 1.1.45 2 1 2s1-.9 1-2-.45-2-1-2-1 .9-1 2m116.813-1.317c.721.289 1.584.253 1.916-.079.332-.332-.258-.568-1.312-.525-1.165.048-1.402.285-.604.604M141.158 40c0 1.375.227 1.938.504 1.25.278-.687.278-1.812 0-2.5-.277-.687-.504-.125-.504 1.25m-29.908-.282c-1.791.643-1.541 2.817.5 4.361 1.489 1.127 1.563 1.115.5-.077-.687-.771-1.25-1.762-1.25-2.202 0-1.292 2.786-.916 3.338.45.317.785.533.831.583.122.109-1.559-2.157-3.198-3.671-2.654m55.821.697c-.746.898-1.059 1.93-.697 2.292.934.934 2.932-1.29 2.452-2.729-.276-.828-.818-.693-1.755.437m-66.591 1.617c-.388.628-.235 1.613.34 2.188 1.344 1.344 4.477.172 3.93-1.471-.556-1.671-3.386-2.147-4.27-.717m77.103-.166c-.431.697-.513 1.537-.183 1.867.895.895 1.871-.421 1.387-1.871-.338-1.016-.574-1.016-1.204.004M101.5 43c.34.55 1.041 1 1.559 1s.941-.45.941-1-.702-1-1.559-1-1.281.45-.941 1M25 50.131v5.131l-3.665-.595-3.666-.595 3.416 3.432c1.878 1.888 3.865 3.454 4.415 3.481.55.026 2.8 1.953 5 4.282 3.028 3.204 3.923 4.901 3.684 6.983L33.867 75l-10.683.019-10.684.019-3.824 6.539c-2.63 4.497-3.52 6.912-2.851 7.731.608.744.647 3.237.104 6.638-.479 2.995-.771 5.496-.65 5.557.122.061 2.094 1.554 4.383 3.318 5.81 4.478 10.396 6.179 16.657 6.179 2.96 0 6.83.505 8.6 1.122 2.9 1.011 3.487.863 5.954-1.5 1.505-1.442 3.081-2.622 3.503-2.622 1.388 0 3.293-2.493 2.871-3.759-.228-.683.039-1.241.593-1.241.554 0 2.404-1.176 4.112-2.613 2.377-2 2.848-2.923 2.007-3.936-1.18-1.422.29-5.451 1.989-5.451.482 0 3.648-2.315 7.034-5.145 5.653-4.723 6.026-5.276 4.551-6.75-1.416-1.416-1.715-1.428-2.539-.105-.769 1.237-1.287 1.28-2.95.25-1.109-.687-3.485-1.25-5.28-1.249l-3.264.001.336-16.501L54.172 45H25v5.131m170.409-4.278c.29.469-.128 1.706-.929 2.75-1.412 1.841-1.512 1.825-3.361-.538-1.855-2.369-1.977-2.388-4.544-.706-1.452.951-2.373 2.159-2.048 2.685 1.013 1.638-.538 3.191-1.987 1.989-.937-.777-1.921-.531-3.661.919-1.864 1.552-2.023 1.989-.736 2.015 1.365.027 2.857 1.915 2.857 3.615 0 .23-1.125.418-2.5.418-1.701 0-2.511-.559-2.535-1.75-.027-1.336-.374-1.158-1.465.75-2.213 3.872-1.858 5.038 1.446 4.754 1.621-.14 3.083.196 3.25.746.167.55-1.439 1.143-3.568 1.318l-3.873.317.504 4.473c.278 2.46 1.277 5.327 2.221 6.37.944 1.043 1.445 2.334 1.115 2.868-.617.998 6.958 5.154 9.392 5.154.746 0 2.198-.762 3.227-1.694 1.772-1.603 1.902-1.577 2.446.5.943 3.609 3.34 2.671 3.34-1.306 0-2.444.452-3.5 1.5-3.5 1.007 0 1.5 1.007 1.5 3.064v3.064l4.03-2.265c2.841-1.597 3.845-2.722 3.404-3.814-.344-.852-.856-2.111-1.137-2.799-.641-1.568 3.307-1.7 4.269-.143.477.771.944.696 1.544-.25 1.325-2.092 1.073-2.691-1.282-3.037-1.194-.176-2.379-.951-2.634-1.722-.459-1.393.966-1.293 4.925.345 1.151.477 1.793.005 2.224-1.636.333-1.269.167-2.457-.369-2.64-.535-.184-.974-.884-.974-1.557 0-.673-1.153-1.648-2.563-2.167-2.369-.872-2.45-1.094-1.067-2.943 1.239-1.657 1.721-1.773 2.813-.679 1.09 1.094 1.08 1.266-.058 1-.756-.176-1.605.313-1.886 1.088-.355.977-.01 1.217 1.125.782.9-.346 1.636-.166 1.636.399 0 .566.45.75 1 .41s1-1.891 1-3.448c0-2.081-.463-2.793-1.75-2.691-1.306.104-1.75-.617-1.75-2.843 0-3.907-2.63-4.44-5.281-1.07-1.947 2.476-4.219 3.405-4.219 1.726 0-.454 1.125-1.882 2.5-3.174s2.5-2.667 2.5-3.056c0-.388-1.999-1.21-4.443-1.825-5.334-1.343-5.83-1.369-5.148-.266m11.741.097c.43 1.289 1.801 1.521 1.925.325.041-.399-.465-.905-1.125-1.125-.66-.22-1.02.14-.8.8M100 47.559c0 .857.457 1.276 1.016.931.559-.346.758-1.047.441-1.559-.857-1.387-1.457-1.129-1.457.628M192 47c0 .55.45 1 1 1s1-.45 1-1-.45-1-1-1-1 .45-1 1m-98.58 1.348c-1.372 3.575 2.281 4.962 4.348 1.652.687-1.1.832-2 .322-2-.509 0-1.634-.272-2.5-.604-.931-.357-1.817.031-2.17.952m20.247-.681C112.29 49.043 113.073 51 115 51c1.333 0 2-.667 2-2 0-1.927-1.957-2.71-3.333-1.333m5.84.322c-.35.566.051.734.941.393 1.732-.665 2.049-1.382.611-1.382-.518 0-1.216.445-1.552.989m101.508-.239c.009.413.434 1.412.946 2.221 1.152 1.822 2.504.682 1.694-1.428-.598-1.558-2.668-2.18-2.64-.793M81 49.441c0 .793.45 1.719 1 2.059.55.34 1-.309 1-1.441C83 48.927 82.55 48 82 48s-1 .648-1 1.441m13.583-.575c-.431.697-.513 1.537-.183 1.867.895.895 1.871-.421 1.387-1.871-.338-1.016-.574-1.016-1.204.004M114 49c0 .55.45 1 1 1s1-.45 1-1-.45-1-1-1-1 .45-1 1m19-.059c0 1.676 1.774 2.092 2.364.553.348-.907-.003-1.494-.895-1.494-.808 0-1.469.423-1.469.941m-27.776 1.235c-1.349 1.349.135 3.824 2.291 3.824 1.773 0 2.559-2.526 1.207-3.878-1.419-1.419-2.034-1.41-3.498.054M169 50.059c0 .582.45.781 1 .441s1-.816 1-1.059-.45-.441-1-.441-1 .477-1 1.059M106 51.5c0 .825.45 1.5 1 1.5s1-.675 1-1.5-.45-1.5-1-1.5-1 .675-1 1.5m17.51.516c.346.559 1.047.758 1.559.441 1.387-.857 1.129-1.457-.628-1.457-.857 0-1.276.457-.931 1.016m37.073-.15c-.431.697-.513 1.537-.183 1.867.895.895 1.871-.421 1.387-1.871-.338-1.016-.574-1.016-1.204.004m31.03 1.317c.289.467.944.591 1.456.274 1.308-.808 1.161-1.124-.525-1.124-.801 0-1.22.383-.931.85m-5.29 2.418c-.853 2.222 1.811 3.693 3.545 1.959.753-.753 1.064-1.861.691-2.464-1.006-1.628-3.533-1.327-4.236.505M187.5 56c-.34.55-.141 1 .441 1S189 56.55 189 56s-.198-1-.441-1-.719.45-1.059 1m29.515.75c-.008 1.237.435 2.25.985 2.25 1.253 0 1.253-1.061 0-3-.784-1.213-.972-1.069-.985.75M177 57c0 .55.45 1 1 1s1-.45 1-1-.45-1-1-1-1 .45-1 1m-70 2c0 .55.477 1 1.059 1s.781-.45.441-1-.816-1-1.059-1-.441.45-.441 1m31.667-.333c-.367.366-.667 1.321-.667 2.122 0 1.181.283 1.221 1.5.211.825-.685 1.5-1.64 1.5-2.122 0-1.036-1.384-1.161-2.333-.211m43.971.833c-.316.825-.139 1.5.393 1.5.533 0 .969-.675.969-1.5s-.177-1.5-.393-1.5c-.216 0-.652.675-.969 1.5m14.994-.714c-.267.432.349.785 1.368.785 1.019 0 1.635-.353 1.368-.785-.268-.432-.883-.786-1.368-.786-.485 0-1.1.354-1.368.786M80.229 60.188c.618 1.854 2.771 2.161 2.771.395 0-.871-.713-1.583-1.583-1.583-.871 0-1.406.534-1.188 1.188M130.5 61c-.34.55-.141 1 .441 1S132 61.55 132 61s-.198-1-.441-1-.719.45-1.059 1m-40.35 1.95c.22.66.726 1.166 1.125 1.125 1.196-.124.964-1.495-.325-1.925-.66-.22-1.02.14-.8.8m74.85.55c0 .825.675 1.5 1.5 1.5s1.5-.675 1.5-1.5-.675-1.5-1.5-1.5-1.5.675-1.5 1.5m57 1c0 .825.45 1.5 1 1.5s1-.675 1-1.5-.45-1.5-1-1.5-1 .675-1 1.5m-30.444.41c-.935 1.511.548 4.095 2.301 4.011 1.038-.05 1.182-.265.393-.583-.687-.278-1.25-1.19-1.25-2.028 0-.967.568-1.306 1.552-.928.89.341 1.291.173.941-.393-.766-1.24-3.19-1.289-3.937-.079M113 66.417c0 .87.713 1.583 1.583 1.583 1.766 0 1.459-2.153-.395-2.771-.654-.218-1.188.317-1.188 1.188m69.336.15c-.834 2.172 1.282 4.215 2.797 2.7 1.28-1.28.487-4.267-1.133-4.267-.585 0-1.333.705-1.664 1.567M127 67c0 .55.45 1 1 1s1-.45 1-1-.45-1-1-1-1 .45-1 1m56 .5c0 .825.45 1.5 1 1.5s1-.675 1-1.5-.45-1.5-1-1.5-1 .675-1 1.5M98.5 72c.34.55 1.293 1 2.118 1s1.222-.45.882-1c-.34-.55-1.293-1-2.118-1s-1.222.45-.882 1m82.833.456c0 .801.375 1.224.834.941.458-.283.833-.938.833-1.456s-.375-.941-.833-.941c-.459 0-.834.655-.834 1.456M201 72.5c0 .825.177 1.5.393 1.5.216 0 .652-.675.969-1.5.316-.825.139-1.5-.393-1.5-.533 0-.969.675-.969 1.5m-38.474.459c-.414.668-.258 1.709.344 2.311 1.537 1.537 2.51.231 1.36-1.823-.7-1.251-1.153-1.38-1.704-.488m11.947.085c-.355.574-.092 1.71.584 2.525 1.081 1.302 1.455 1.278 3.086-.199 1.022-.924 1.857-2.06 1.857-2.525 0-1.215-4.759-1.044-5.527.199m19.973.043c-.369.598-.19 1.569.399 2.158 1.248 1.248 4.494-.888 3.585-2.358-.761-1.232-3.174-1.11-3.984.2M215 73.5c0 .825.45 1.5 1 1.5s1-.675 1-1.5-.45-1.5-1-1.5-1 .675-1 1.5m-40 .5c0 .55.675 1 1.5 1s1.5-.45 1.5-1-.675-1-1.5-1-1.5.45-1.5 1m20.51.016c.346.559 1.047.758 1.559.441 1.387-.857 1.129-1.457-.628-1.457-.857 0-1.276.457-.931 1.016M186 75.759c0 1.817 3.755 4.82 4.764 3.81.313-.313-.068-.576-.847-.584-1.207-.013-1.21-.147-.021-.899 1.925-1.219.616-4.086-1.865-4.086-1.272 0-2.031.658-2.031 1.759m1 .241c0 .55.675 1 1.5 1s1.5-.45 1.5-1-.675-1-1.5-1-1.5.45-1.5 1m18 0c0 .55.45 1 1 1s1-.45 1-1-.45-1-1-1-1 .45-1 1m-44 7.794c0 .529.727 1.564 1.615 2.302 1.398 1.16 1.566 1.086 1.25-.545-.376-1.944-2.865-3.469-2.865-1.757m58.667-.127c-.367.366-.667 1.321-.667 2.122 0 1.181.283 1.221 1.5.211.825-.685 1.5-1.64 1.5-2.122 0-1.036-1.384-1.161-2.333-.211M211 86c0 .55.45 1 1 1s1-.45 1-1-.45-1-1-1-1 .45-1 1m-39.5 2c.34.55 1.041 1 1.559 1s.941-.45.941-1-.702-1-1.559-1-1.281.45-.941 1m22.5 3c0 .55.927 1 2.059 1 1.132 0 1.781-.45 1.441-1-.34-.55-1.266-1-2.059-1-.793 0-1.441.45-1.441 1m14.469.05c-.918 1.486-.188 2.012 1.417 1.021.859-.532.962-1.047.29-1.462-.571-.353-1.339-.154-1.707.441M180.5 97c.34.55 1.041 1 1.559 1s.941-.45.941-1-.702-1-1.559-1-1.281.45-.941 1m17.5 20c0 .55.675 1 1.5 1s1.5-.45 1.5-1-.675-1-1.5-1-1.5.45-1.5 1m15 1.882c0 .55.45 1.278 1 1.618.55.34 1 .168 1-.382s-.45-1.278-1-1.618c-.55-.34-1-.168-1 .382m-25 1.177c0 .582.45.781 1 .441s1-.816 1-1.059-.45-.441-1-.441-1 .477-1 1.059M206 122c0 .55.702 1 1.559 1s1.281-.45.941-1c-.34-.55-1.041-1-1.559-1s-.941.45-.941 1m-33.333 2.667c-1.285 1.284-.671 3.272.833 2.695.825-.317 1.5-1.203 1.5-1.969 0-1.47-1.212-1.848-2.333-.726m11 2c-.367.366-.667 1.131-.667 1.7 0 .626.466.567 1.183-.15.651-.651.951-1.416.667-1.7-.284-.284-.817-.217-1.183.15M37.5 128c-.34.55.084 1 .941 1S40 128.55 40 128s-.423-1-.941-1-1.219.45-1.559 1m14.729 2.187c.498 1.495 2.771 2.318 2.771 1.003 0-.537-.713-1.249-1.584-1.584-.973-.373-1.431-.15-1.187.581M27 131.059c0 .582.45.781 1 .441s1-.816 1-1.059-.45-.441-1-.441-1 .477-1 1.059m165.701.582c-2.168 1.142-2.65 1.943-2.139 3.553.568 1.791.333 1.998-1.701 1.501-1.299-.318-3.115-.016-4.037.67-1.551 1.154-1.532 1.336.25 2.449 1.059.662 1.926 1.874 1.926 2.694 0 2.029-3.904 1.905-4.692-.148-.569-1.482-.759-1.464-1.969.191-2.14 2.927-1.574 4.3 1.911 4.636 4.269.411 3.764 2.227-.729 2.623-3.139.277-3.521.622-3.521 3.185 0 6.23 4.503 13.106 9.803 14.969 3.902 1.371 4.26 1.339 5.681-.5 1.435-1.859 1.589-1.87 2.876-.214 2.067 2.659 3.479 2.105 3.827-1.5.365-3.785 2.167-3.978 2.629-.281.382 3.048.758 3.088 4.966.522 2.767-1.686 3.121-2.304 2.25-3.93-1.56-2.916-1.312-3.24 2.218-2.886 2.367.237 3.25-.083 3.25-1.175 0-.825-1.012-1.644-2.25-1.82-1.238-.175-2.25-.758-2.25-1.295 0-.566 1.412-.711 3.361-.345 2.848.534 3.444.312 3.906-1.455.3-1.147.138-2.085-.361-2.085-.498 0-.906-.886-.906-1.969 0-1.152-.518-1.778-1.25-1.51-.687.252-1.896.047-2.686-.455-1.19-.757-1.211-1.184-.127-2.49.719-.867 1.815-1.569 2.435-1.561.621.009.466.434-.343.946-1.781 1.126-1.335 1.673 2.06 2.525 2.405.604 2.554.443 2.147-2.328-.279-1.905-1.153-3.164-2.426-3.497-1.431-.375-1.818-1.062-1.377-2.45.351-1.107.019-2.421-.779-3.083-1.098-.912-2.026-.504-4.414 1.938-1.663 1.701-3.284 2.672-3.601 2.159-.318-.514.534-1.978 1.892-3.254 3.192-2.999 3.115-3.55-.68-4.873-3.633-1.267-6.923-1.438-6.692-.348.264 1.248-1.314 4.25-2.234 4.25-.474 0-1.438-1.088-2.143-2.417-1.213-2.288-1.432-2.338-4.081-.942M198 131c0 .55.45 1 1 1s1-.45 1-1-.45-1-1-1-1 .45-1 1m15 0c0 .55.675 1 1.5 1s1.5-.45 1.5-1-.675-1-1.5-1-1.5.45-1.5 1m-167.5 2c.34.55 1.068 1 1.618 1s.722-.45.382-1c-.34-.55-1.068-1-1.618-1s-.722.45-.382 1m181.5-.206c0 .529.727 1.564 1.615 2.302 1.398 1.16 1.566 1.086 1.25-.545-.376-1.944-2.865-3.469-2.865-1.757m-51.333.873c-.367.366-.667 1.131-.667 1.7 0 .626.466.567 1.183-.15.651-.651.951-1.416.667-1.7-.284-.285-.817-.217-1.183.15m-163.596 2.748c-.746.898-1.059 1.93-.697 2.292.934.934 2.932-1.29 2.452-2.729-.276-.828-.818-.693-1.755.437M166 137.5c0 .825.45 1.5 1 1.5s1-.675 1-1.5-.45-1.5-1-1.5-1 .675-1 1.5m31-.469c0 .533.675.969 1.5.969s1.5-.177 1.5-.393c0-.216-.675-.652-1.5-.969-.825-.316-1.5-.139-1.5.393m-174.541 1.036c-.363.586-.419 1.306-.126 1.6.717.716 2.667-.546 2.667-1.726 0-1.278-1.726-1.193-2.541.126m170.021 1.965c-.388.628-.235 1.613.34 2.188 1.344 1.344 4.477.172 3.93-1.471-.556-1.671-3.386-2.147-4.27-.717m.52.968c0 .55.45 1 1 1s1-.45 1-1-.45-1-1-1-1 .45-1 1m30 .5c0 .825.436 1.5.969 1.5.532 0 .709-.675.393-1.5-.317-.825-.753-1.5-.969-1.5-.216 0-.393.675-.393 1.5m-190.547 1.334c-1.894 1.036-2.914 2.293-2.695 3.323.456 2.14-1.593 3.437-2.343 1.483-.494-1.288-.832-1.263-2.519.181-1.58 1.352-1.695 1.858-.61 2.673.736.554 1.645 1.823 2.02 2.822.567 1.509.232 1.762-1.985 1.5-1.467-.174-2.78-.89-2.919-1.591-.139-.701-.023-.814.256-.25.622 1.253 3.342 1.369 3.342.142 0-.486-.936-1.128-2.079-1.427-1.628-.426-2.37.145-3.422 2.633l-1.343 3.177 3.422.31c5.165.469 4.575 3.19-.692 3.19h-4.113l.702 4.75c.387 2.613 1.338 5.46 2.114 6.329.776.868 1.411 2.096 1.411 2.729 0 1.262 7.069 5.192 9.338 5.192.779 0 1.987-.686 2.683-1.525 1.134-1.367 1.441-1.367 2.951 0 2.804 2.537 4.356 1.915 3.678-1.475-.45-2.249-.231-3 .875-3 .976 0 1.475 1.027 1.475 3.035 0 2.826.155 2.955 2.25 1.872 4.617-2.388 5.694-3.923 4.661-6.641-.936-2.463-.864-2.52 2.484-1.977 4.217.685 6.059-1.886 2.07-2.887-3.527-.885-3.057-2.47.52-1.755 3.485.697 5.088-1.649 2.915-4.268-1.112-1.339-1.065-1.785.29-2.776 2.176-1.591 1.25-6.255-1.379-6.942-1.489-.389-1.824-1.044-1.332-2.596 1.111-3.499-2.365-3.899-5.203-.599-1.668 1.939-2.729 2.481-3.45 1.76-.72-.72-.238-1.565 1.567-2.748 3.468-2.272 3.29-4.044-.542-5.38-3.991-1.391-7.167-1.419-6.324-.054.673 1.089-1.187 3.956-2.566 3.956-.437 0-1.169-1.087-1.628-2.416-.817-2.368-.892-2.383-3.88-.75m5.09-.903c-.317.512-.118 1.213.441 1.559.559.345 1.016-.074 1.016-.931 0-1.757-.6-2.015-1.457-.628M53 142c0 .55.45 1 1 1s1-.45 1-1-.45-1-1-1-1 .45-1 1m130 0c0 .55.45 1 1 1s1-.45 1-1-.45-1-1-1-1 .45-1 1m-116 2.441c0 .793.45 1.719 1 2.059.55.34 1-.309 1-1.441 0-1.132-.45-2.059-1-2.059s-1 .648-1 1.441m121.667-.774c-.367.366-.667 1.131-.667 1.7 0 .626.466.567 1.183-.15.651-.651.951-1.416.667-1.7-.284-.285-.817-.217-1.183.15m14.333.302c0 .532.675.709 1.5.393.825-.317 1.5-.753 1.5-.969 0-.216-.675-.393-1.5-.393s-1.5.436-1.5.969m-31.591 3.407c-.847 2.208.28 3.335 1.808 1.807.902-.902.905-1.461.016-2.35-.89-.89-1.324-.761-1.824.543m-165.826.49c-.431.697-.513 1.537-.183 1.867.895.895 1.871-.421 1.387-1.871-.338-1.016-.574-1.016-1.204.004m30.417.165c0 .533.675.969 1.5.969s1.5-.177 1.5-.393c0-.216-.675-.652-1.5-.969-.825-.316-1.5-.139-1.5.393M228 149c0 1.1.45 2 1 2s1-.9 1-2-.45-2-1-2-1 .9-1 2m-30.049.559c-.93 1.121-.919 1.775.049 2.941.685.825 1.752 1.464 2.372 1.421.709-.05.663-.266-.122-.583-.687-.278-1.25-1.19-1.25-2.028 0-.944.571-1.305 1.5-.948.825.316 1.5.187 1.5-.286 0-1.604-2.846-1.967-4.049-.517M31.48 151.032c-.388.628-.235 1.613.34 2.188 1.344 1.344 4.477.172 3.93-1.471-.556-1.671-3.386-2.147-4.27-.717m156.52.895c0 1.431.642 2.073 2.073 2.073 2.563 0 2.272-3.31-.334-3.812-1.2-.231-1.739.308-1.739 1.739M33 152c0 .55.45 1 1 1s1-.45 1-1-.45-1-1-1-1 .45-1 1m29 .382c0 .825.45 1.778 1 2.118.55.34 1-.057 1-.882s-.45-1.778-1-2.118c-.55-.34-1 .057-1 .882M189 152c0 .55.45 1 1 1s1-.45 1-1-.45-1-1-1-1 .45-1 1m-160.333 2.667c-.367.366-.667 1.131-.667 1.7 0 .626.466.567 1.183-.15.651-.651.951-1.416.667-1.7-.284-.285-.817-.217-1.183.15m13.678.876c-.326.849-.311 1.824.031 2.167.343.343.624-.089.624-.96s.563-1.81 1.25-2.088c.979-.395.972-.521-.031-.583-.705-.043-1.548.615-1.874 1.464m9.691.39c-.84 1.569-.66 2.052.956 2.564 2.21.702 4.008-.051 4.008-1.678 0-.701-.482-.664-1.411.107-.897.745-1.633.812-2.021.184-.336-.543.187-1.451 1.161-2.018 1.637-.953 1.641-1.033.056-1.062-.943-.016-2.18.84-2.749 1.903m128.59 1.6c-1.375 3.581 2.54 4.894 4.374 1.467.635-1.186.683-2 .117-2-.524 0-1.607-.251-2.406-.557-.817-.314-1.73.163-2.085 1.09M187.5 157c.34.55.816 1 1.059 1s.441-.45.441-1-.477-1-1.059-1-.781.45-.441 1m13.167-.333c-1.023 1.022-.792 3.333.333 3.333.55 0 .887-.405.75-.9s.2-.9.75-.9.876.438.725.974c-.151.536.167.702.707.368.539-.333.727-1.267.417-2.074-.586-1.529-2.531-1.952-3.682-.801m6.333.392c0 .582.45.781 1 .441s1-.816 1-1.059-.45-.441-1-.441-1 .477-1 1.059m-196 1.882c0 1.132.45 2.059 1 2.059s1-.648 1-1.441-.45-1.719-1-2.059c-.55-.34-1 .309-1 1.441m157-.5c0 1.614 1.416 2.809 2.292 1.934.78-.78-.295-3.375-1.399-3.375-.491 0-.893.648-.893 1.441m53 .118c0 .857.45 1.281 1 .941.55-.34 1-1.041 1-1.559s-.45-.941-1-.941-1 .702-1 1.559m-153.554.528c-.369.598-.171 1.588.441 2.2.817.817 1.113.528 1.113-1.087 0-2.415-.519-2.787-1.554-1.113M181 159c0 .55.675 1 1.5 1s1.5-.45 1.5-1-.675-1-1.5-1-1.5.45-1.5 1m11.38.452c-.717 1.868.33 3.548 2.21 3.548 2.044 0 3.005-3.009 1.306-4.086-1.989-1.259-2.879-1.122-3.516.538m-155.21 2.64c.181 1.238.904 2.365 1.605 2.505.701.139.814.024.25-.255-1.537-.762-1.234-3.342.392-3.342.779 0 1.645.461 1.925 1.025.279.564.394.451.255-.25-.14-.701-1.267-1.424-2.505-1.605-1.84-.27-2.192.082-1.922 1.922m156.34-1.076c.346.559 1.047.758 1.559.441 1.387-.857 1.129-1.457-.628-1.457-.857 0-1.276.457-.931 1.016M211 161c0 .55.45 1 1 1s1-.45 1-1-.45-1-1-1-1 .45-1 1m-183.677 1.601c-.853 2.222 1.811 3.693 3.545 1.959.753-.753 1.064-1.861.691-2.464-1.006-1.628-3.533-1.327-4.236.505M28 163c0 .55.702 1 1.559 1s1.281-.45.941-1c-.34-.55-1.041-1-1.559-1s-.941.45-.941 1m-7.442 4.775C19.156 169.177 20.12 172 22 172c1.1 0 2-.188 2-.418 0-.23.25-1.071.557-1.869.553-1.442-2.847-3.09-3.999-1.938M26.5 168c.34.55.816 1 1.059 1s.441-.45.441-1-.477-1-1.059-1-.781.45-.441 1m13.602.378c-.817.983-.864 1.651-.151 2.092.577.356 1.049-.08 1.049-.97s.457-1.335 1.016-.99c.559.346.758 1.047.441 1.559-.316.512-.065.931.557.931 1.415 0 .883-3.202-.614-3.7-.605-.202-1.639.283-2.298 1.078M8 169.941c0 1.132.45 2.059 1 2.059s1-.648 1-1.441-.45-1.719-1-2.059c-.55-.34-1 .309-1 1.441m52-.441c0 .825.45 1.5 1 1.5s1-.675 1-1.5-.45-1.5-1-1.5-1 .675-1 1.5m108 .5c.589 1.1 1.28 2 1.535 2 .256 0 .465-.9.465-2 0-1.131-.667-2-1.535-2-1.225 0-1.319.404-.465 2m57-.417c0 1.766 2.153 1.459 2.771-.395.218-.654-.317-1.188-1.188-1.188-.87 0-1.583.713-1.583 1.583M21 170c0 .55.45 1 1 1s1-.45 1-1-.45-1-1-1-1 .45-1 1m10.987.516c-1.469 1.769-.449 3.484 2.072 3.484 1.238 0 1.941-.686 1.941-1.893 0-2.42-2.502-3.412-4.013-1.591m185.68-.849c-.367.366-.667 1.131-.667 1.7 0 .626.466.567 1.183-.15.651-.651.951-1.416.667-1.7-.284-.285-.817-.217-1.183.15M33 172c0 .55.45 1 1 1s1-.45 1-1-.45-1-1-1-1 .45-1 1m17 0c0 .55.45 1 1 1s1-.45 1-1-.45-1-1-1-1 .45-1 1m127.188.063c.24.721 1.028 1.509 1.75 1.75.75.25 1.125-.125.875-.875-.241-.722-1.029-1.51-1.75-1.75-.75-.25-1.125.125-.875.875m23.41 2.673c-1.073 1.073-.63 2.264.843 2.264.793 0 1.69-.403 1.994-.895.636-1.03-1.936-2.271-2.837-1.369m13.861 1.331c-1.076 1.741.149 2.11 1.521.457.789-.95.865-1.524.201-1.524-.584 0-1.36.48-1.722 1.067M7.154 180.552c.191.98.951 1.984 1.692 2.23.86.287 1.22-.194 1-1.334-.191-.98-.951-1.984-1.692-2.23-.86-.287-1.22.194-1 1.334m57.513-.885c-1.151 1.15-.729 2.333.833 2.333.825 0 1.5-.675 1.5-1.5 0-1.562-1.183-1.984-2.333-.833m-7.647 1.809c-.789.95-.865 1.524-.201 1.524 1.208 0 2.617-1.897 1.924-2.591-.252-.251-1.027.229-1.723 1.067M186 181c0 .55.702 1 1.559 1s1.281-.45.941-1c-.34-.55-1.041-1-1.559-1s-.941.45-.941 1m-169 1.882c0 .55.45 1.278 1 1.618.55.34 1 .168 1-.382s-.45-1.278-1-1.618c-.55-.34-1-.168-1 .382m192.167 3.44c-1.252 1.333-4.165 3.199-6.472 4.146-2.307.947-6.606 2.863-9.554 4.258-7.591 3.593-12.141 3.52-15.496-.247-1.488-1.67-2.385-2.21-2.043-1.229.478 1.366.058 1.75-1.913 1.75-3.47 0-5.689-.969-5.689-2.485 0-.698-.67-1.826-1.489-2.506-.819-.68-1.274-1.584-1.011-2.009.726-1.175-1.695-2.527-4.5-2.513-3.508.018-4.149 5.02-.932 7.273 2.073 1.452 2.105 1.64.486 2.824-1.103.807-1.512 1.973-1.122 3.202.805 2.536-.272 5.214-2.098 5.214-.799 0-1.169.457-.824 1.016.346.559 1.141.7 1.767.313 1.669-1.032 10.723-1.279 10.723-.293 0 .463 1.949 1.134 4.331 1.491 3.805.571 4.484 1.072 5.588 4.126 1.514 4.186 5.206 6.074 6.299 3.221.67-1.749 3.967-2.771 3.627-1.124-.085.412.458 2.887 1.208 5.5 1.543 5.383 3.844 6.192 8.095 2.848 1.33-1.046 3.528-2.059 4.885-2.25 2.421-.342 2.387-.435-1.866-5.05-4.545-4.932-5.093-7.819-1.662-8.754 3.404-.928 8.495-4.409 8.495-5.807 0-2.638 5.142-6.237 8.909-6.237 3.99 0 14.091 6.018 14.091 8.395 0 .871.966 1.237 2.75 1.041 1.974-.216 3.257.385 4.547 2.131 1.541 2.088 1.577 2.433.25 2.433-.851 0-1.547-.45-1.547-1 0-1.674-2.02-1.115-2.708.75-.356.963-1.088 2.046-1.627 2.407-1.215.813 1.27 6.293 4.622 10.194l2.407 2.801 1.326-3.326c1.729-4.34 1.693-4.309 3.394-2.898 1.203.999 1.742.671 3.049-1.857.874-1.689 1.985-3.071 2.469-3.071 1.114 0 .169-3.833-1.635-6.634-.756-1.173-1.245-2.539-1.086-3.034.549-1.713-8.632-10.425-13.041-12.375-2.433-1.076-6.58-1.957-9.214-1.957-2.634 0-4.939-.397-5.123-.882-.183-.485-2.146-1.183-4.361-1.55-3.453-.573-4.354-.323-6.305 1.754M39.5 187c-.34.55.309 1 1.441 1 1.132 0 2.059-.45 2.059-1s-.648-1-1.441-1-1.719.45-2.059 1m14.167-.333c-1.215 1.214-.691 2.28.833 1.695.825-.317 1.5-.978 1.5-1.469 0-1.048-1.378-1.182-2.333-.226m40.133.533c.933.933 1.467.933 2.4 0 .933-.933.667-1.2-1.2-1.2s-2.133.267-1.2 1.2M83.5 189c-.34.55-.141 1 .441 1S85 189.55 85 189s-.198-1-.441-1-.719.45-1.059 1m24.5 0c0 .55.702 1 1.559 1s1.281-.45.941-1c-.34-.55-1.041-1-1.559-1s-.941.45-.941 1m-82.425 2.879c-.31.501.109 1.169.931 1.485.822.315 1.494.164 1.494-.336 0-1.356-1.777-2.198-2.425-1.149m75.425-.486c0 .216.675.652 1.5.969.825.316 1.5.139 1.5-.393 0-.533-.675-.969-1.5-.969s-1.5.177-1.5.393m-33.333 3.274c-1.151 1.15-.729 2.333.833 2.333.825 0 1.5-.675 1.5-1.5 0-1.562-1.183-1.984-2.333-.833M78 197c0 .55.423 1 .941 1s1.219-.45 1.559-1c.34-.55-.084-1-.941-1S78 196.45 78 197m18.577 3.34c.627 1.635-2.085 4.082-3.533 3.187-.574-.355-1.044-1.324-1.044-2.153 0-1.102-.606-1.323-2.25-.819-3.448 1.057-4.593 2.33-4.03 4.482.541 2.07-.668 2.612-2.27 1.017-.598-.595-1.877-.233-3.45.978-1.976 1.521-2.141 1.928-.785 1.946.943.012 2.17.872 2.726 1.912.83 1.55.611 1.996-1.215 2.484-1.379.368-2.644.037-3.323-.872-.921-1.231-1.284-1.06-2.25 1.063-1.609 3.53-1.548 3.625 2.097 3.26 2.364-.236 3.25.083 3.25 1.171 0 1.131-.954 1.415-3.898 1.161l-3.898-.336.653 4.767c.359 2.621 1.326 5.509 2.148 6.418.822.908 1.495 2.109 1.495 2.668 0 1.713 3.309 4.075 7.181 5.127 2.917.792 3.793.709 4.219-.401.726-1.891 3.242-1.776 3.994.183.953 2.484 3.106 1.037 3.106-2.087 0-1.552.563-3.01 1.25-3.242.821-.276 1.25.638 1.25 2.663 0 3.622.438 3.723 4.75 1.094 3.68-2.244 3.582-2.008 2.275-5.446-.837-2.2-.703-2.565.941-2.565 1.054 0 2.208.472 2.564 1.049.444.717 1.09.682 2.048-.114 1.75-1.452.924-2.935-1.637-2.935-1.116 0-1.941-.683-1.941-1.607 0-1.032.537-1.39 1.5-1l2.91 1.179c.884.359 1.679-.276 2.132-1.705.447-1.406.29-2.423-.409-2.656-.623-.208-1.133-1.015-1.133-1.794 0-.78-.873-1.417-1.941-1.417-2.789 0-3.3-1.471-1.179-3.392 1.612-1.458 1.982-1.479 3.063-.177.676.815.903 2.009.504 2.655-.43.695-.23 1.008.489.769.668-.223 1.18-.731 1.139-1.13-.041-.399-.075-1.625-.075-2.725 0-1.111-.667-2-1.5-2-1.467 0-1.69-.519-1.898-4.412-.157-2.941-2.304-3.012-4.944-.164-1.313 1.417-2.982 2.576-3.71 2.576-.772 0-.204-1.167 1.365-2.805 1.478-1.542 2.687-3.289 2.687-3.881 0-.592-1.999-1.58-4.443-2.195-5.564-1.401-5.602-1.4-4.98.221m12.423.101c0 .857.45 1.559 1 1.559s1-.423 1-.941-.45-1.219-1-1.559c-.55-.34-1 .084-1 .941M93 201c0 .55.45 1 1 1s1-.45 1-1-.45-1-1-1-1 .45-1 1m30 1.941c0 1.132.45 2.059 1 2.059s1-.648 1-1.441-.45-1.719-1-2.059c-.55-.34-1 .309-1 1.441M70.5 204c-.34.55-.141 1 .441 1S72 204.55 72 204s-.198-1-.441-1-.719.45-1.059 1m-8.771 1.604c-.401.401-.729 1.419-.729 2.263 0 1.125.296 1.237 1.112.421.612-.612.941-1.631.73-2.263-.211-.632-.712-.822-1.113-.421m30.874 1.563c.283.458.938.833 1.456.833s.941-.375.941-.833c0-.459-.655-.834-1.456-.834-.801 0-1.224.375-.941.834m-4.473 2.176c-1.385 1.669.271 4.101 2.269 3.334.881-.338 1.601-1.255 1.601-2.039 0-1.933-2.614-2.808-3.87-1.295m-9.577 1.572a1.116 1.116 0 00.362 1.532c.521.322 1.21.159 1.532-.362a1.116 1.116 0 00-.362-1.532 1.116 1.116 0 00-1.532.362m10.447.144c0 .582.45.781 1 .441s1-.816 1-1.059-.45-.441-1-.441-1 .477-1 1.059m29-.118c0 .518.45 1.219 1 1.559.55.34 1-.084 1-.941s-.45-1.559-1-1.559-1 .423-1 .941m-19.655 2.602c-.326.849-.311 1.824.031 2.167.343.343.624-.175.624-1.15 0-1.192.509-1.579 1.552-1.178.89.341 1.291.173.941-.393-.91-1.472-2.476-1.196-3.148.554M84 214c-.901.582-1.025.975-.309.985.655.008 1.469-.435 1.809-.985.767-1.242.421-1.242-1.5 0m25.5 1c.34.55 1.041 1 1.559 1s.941-.45.941-1-.702-1-1.559-1-1.281.45-.941 1m-42.764 1.598c-.902.901.339 3.473 1.369 2.837.492-.304.895-1.201.895-1.994 0-1.473-1.191-1.916-2.264-.843m56.847 1.268c-.431.697-.513 1.537-.183 1.867.895.895 1.871-.421 1.387-1.871-.338-1.016-.574-1.016-1.204.004m-30.203 1.586c-.704 1.834.32 3.548 2.12 3.548 2.058 0 2.838-1.888 1.464-3.544-1.539-1.853-2.874-1.855-3.584-.004m-9.309.504c-1.656 1.024-.692 4.044 1.291 4.044.783 0 1.67-.642 1.972-1.427.725-1.891-1.522-3.693-3.263-2.617m10.568-.262c-1.126 1.126-.685 2.306.861 2.306.825 0 1.5-.423 1.5-.941 0-1.261-1.562-2.164-2.361-1.365m-10.086 1.221a1.116 1.116 0 00.362 1.532c.521.322 1.21.159 1.532-.362a1.116 1.116 0 00-.362-1.532 1.116 1.116 0 00-1.532.362m-1.915 5.585c.317.825.753 1.5.969 1.5.216 0 .393-.675.393-1.5s-.436-1.5-.969-1.5c-.532 0-.709.675-.393 1.5m-6.972.927c-.301.785.15 2.005 1.002 2.712 1.288 1.069 1.777.972 2.908-.574.748-1.023 1.123-2.243.833-2.712-.851-1.377-4.147-.978-4.743.574m19.814-.395c-.388.628-.235 1.613.34 2.188 1.344 1.344 4.477.172 3.93-1.471-.556-1.671-3.386-2.147-4.27-.717m6.52.027c0 .582.45.781 1 .441s1-.816 1-1.059-.45-.441-1-.441-1 .477-1 1.059m14.583-.193c-.431.697-.513 1.537-.183 1.867.895.895 1.871-.421 1.387-1.871-.338-1.016-.574-1.016-1.204.004M64 228.5c0 .825.45 1.5 1 1.5s1-.675 1-1.5-.45-1.5-1-1.5-1 .675-1 1.5m12.543-.569c-.683 1.105.894 2.299 1.818 1.375.95-.951.773-2.306-.302-2.306-.518 0-1.2.419-1.516.931M97 228c0 .55.45 1 1 1s1-.45 1-1-.45-1-1-1-1 .45-1 1m-9.649 1.527c-.368.961-.047 2.051.753 2.558 1.982 1.253 3.396.564 3.396-1.655 0-2.415-3.293-3.132-4.149-.903M89 230c0 .55.45 1 1 1s1-.45 1-1-.45-1-1-1-1 .45-1 1m17.5 1c.34.55.816 1 1.059 1s.441-.45.441-1-.477-1-1.059-1-.781.45-.441 1M63 238.227c0 1.823 1.773 3.334 2.757 2.349.343-.343-.137-1.384-1.067-2.314-1.558-1.559-1.69-1.562-1.69-.035m57.583.416c-.346.904-.424 1.849-.173 2.1.795.795 2.59-.801 2.59-2.302 0-1.962-1.639-1.824-2.417.202M112.5 240c-.34.55-.168 1 .382 1s1.278-.45 1.618-1c.34-.55.168-1-.382-1s-1.278.45-1.618 1m-40 2c.34.55 1.041 1 1.559 1s.941-.45.941-1-.702-1-1.559-1-1.281.45-.941 1m23 3c-.34.55.335 1 1.5 1s1.84-.45 1.5-1c-.34-.55-1.015-1-1.5-1-.485 0-1.16.45-1.5 1m14 1c-.34.55-.168 1 .382 1s1.278-.45 1.618-1c.34-.55.168-1-.382-1s-1.278.45-1.618 1m-28 5c.34.55 1.041 1 1.559 1s.941-.45.941-1-.702-1-1.559-1-1.281.45-.941 1" fill="#1976D2" fill-rule="evenodd"/></svg>